<?xml version="1.0" encoding="UTF-8"?>
<svg version="1.1" xmlns="http://www.w3.org/2000/svg" width="512" height="512">
<path d="M0 0 C7.52200095 4.36642982 11.97117867 9.98361512 14.2578125 18.359375 C14.66238256 21.26883629 14.31866929 23.65912543 13.9375 26.5625 C13.71251817 29.36174194 13.71251817 29.36174194 14.625 32 C18.2894824 35.23723333 22.36583679 37.42923085 26.61865234 39.80371094 C29.97688534 41.80606451 33.01070853 44.18903346 36.0625 46.625 C36.65039307 47.09244629 37.23828613 47.55989258 37.84399414 48.04150391 C42.0539967 51.43858604 45.94299795 55.03314393 49.625 59 C50.40875 59.78375 51.1925 60.5675 52 61.375 C52.86625 62.24125 53.7325 63.1075 54.625 64 C55.24761719 64.57621094 55.87023437 65.15242188 56.51171875 65.74609375 C73.15920178 81.55671946 84.49637381 102.15682279 93.625 123 C98.23881197 120.41673075 102.66149101 117.68752821 107.0625 114.75 C127.78006518 101.24766026 156.95296571 85.99538497 182.21875 90.6640625 C196.27541217 94.17822804 206.70102636 101.71402291 214.5625 113.75 C234.2631013 147.08066847 239.20880911 186.68598911 229.625 224 C225.84192357 237.76332195 219.85080725 257.77419275 209.625 268 C209.7224875 269.83653877 209.88257949 271.66969754 210.0625 273.5 C213.42402418 317.46873631 203.12335524 355.90283463 174.625 390 C158.93437445 408.28322461 140.67328734 423.27882049 119.625 435 C118.86123047 435.4316748 118.09746094 435.86334961 117.31054688 436.30810547 C103.57960507 444.01329731 89.52419428 449.93830696 74.625 455 C73.77083496 455.29245605 72.91666992 455.58491211 72.03662109 455.88623047 C62.00816719 459.26086586 51.88064696 461.7141045 41.5 463.75 C39.98237061 464.04825684 39.98237061 464.04825684 38.43408203 464.35253906 C21.2898798 467.53517555 4.41242248 468.37459548 -13 468.3125 C-14.06048553 468.31067719 -15.12097107 468.30885437 -16.21359253 468.30697632 C-31.46566871 468.26280994 -46.3618082 467.93397095 -61.375 465 C-62.31907715 464.82307617 -63.2631543 464.64615234 -64.23583984 464.46386719 C-121.21322256 453.59225585 -177.2756329 426.07897385 -211.07299805 377.4206543 C-225.08605307 356.69314818 -234.35001807 333.79412373 -237.0625 308.8125 C-238.07398436 302.30498559 -241.48080003 297.34350012 -244.94140625 291.8984375 C-256.85415003 273.10663592 -264.0549257 251.70300827 -268.375 230 C-268.60960937 228.83984375 -268.84421875 227.6796875 -269.0859375 226.484375 C-277.34101761 177.91100505 -265.43848602 126.39685437 -237.13671875 86.24316406 C-231.15066592 77.95295598 -224.43498616 70.38271409 -217.375 63 C-216.50101563 62.07316406 -215.62703125 61.14632812 -214.7265625 60.19140625 C-203.33531419 48.4159956 -190.47954553 39.23384072 -176.375 31 C-175.40385254 30.42403076 -175.40385254 30.42403076 -174.41308594 29.83642578 C-131.75645789 4.81646761 -82.9171138 1.99664358 -35.375 11 C-34.735625 9.948125 -34.09625 8.89625 -33.4375 7.8125 C-26.16223279 -2.46459666 -11.12593299 -5.09297701 0 0 Z M-15.375 16 C-15.705 16.66 -16.035 17.32 -16.375 18 C-14.7517313 18.6708712 -13.12632422 19.33657029 -11.5 20 C-10.59507812 20.37125 -9.69015625 20.7425 -8.7578125 21.125 C-6.48516142 22.11490226 -6.48516142 22.11490226 -4.375 22 C-4.65117533 20.05925139 -4.65117533 20.05925139 -5.375 18 C-9.0191774 15.5705484 -11.08741272 15.83820425 -15.375 16 Z " fill="#4D251F" transform="translate(275.375,44)"/>
<path d="M0 0 C9.39960595 6.66475727 15.99977379 17.46510123 22.765625 26.62646484 C25.0420783 29.69143963 27.35971044 32.72391794 29.6875 35.75 C30.83025391 37.23886719 30.83025391 37.23886719 31.99609375 38.7578125 C32.73988281 39.70398438 33.48367187 40.65015625 34.25 41.625 C34.67192627 42.17019287 35.09385254 42.71538574 35.52856445 43.27709961 C37.808961 46.14269654 39.08933464 47.56134014 42.5625 48.9375 C46.60119018 48.59523812 47.14683725 48.19436477 49.99145508 45.58837891 C50.69170807 44.94902405 51.39196106 44.30966919 52.11343384 43.65093994 C55.48742829 40.45164275 58.79920309 37.19887703 62.07421875 33.8984375 C62.78351028 33.18773102 63.49280182 32.47702454 64.22358704 31.74478149 C66.46394485 29.49888523 68.70078512 27.24952373 70.9375 25 C72.4483336 23.48414163 73.9593994 21.96851466 75.47070312 20.453125 C78.24191632 17.67379046 81.01180255 14.89314884 83.7800293 12.11083984 C84.67432396 11.21346352 84.67432396 11.21346352 85.58668518 10.29795837 C86.63905769 9.23948443 87.68868637 8.17826922 88.73448181 7.11329651 C92.95091924 2.83507622 96.41699167 0.18400033 102.5625 -0.0625 C133.22533549 0.76715958 166.27640254 22.55697196 188.25 42.625 C189.55324219 43.80449219 189.55324219 43.80449219 190.8828125 45.0078125 C209.1002348 62.31150829 222.74524395 86.65502169 223.4375 112.078125 C223.69658717 128.40862947 221.92384265 141.6790087 215.25 156.625 C214.78464844 157.68074219 214.31929688 158.73648438 213.83984375 159.82421875 C198.12972617 193.30121026 163.60371328 216.1370435 130.06591797 228.83007812 C123.18853987 231.29082004 116.2529243 233.549341 109.25 235.625 C108.37480713 235.88514893 107.49961426 236.14529785 106.59790039 236.41333008 C72.85649397 246.04096025 34.67394794 247.06378588 0.25 240.625 C-1.17119141 240.36759033 -1.17119141 240.36759033 -2.62109375 240.10498047 C-22.27953616 236.45328773 -40.87202079 230.57444456 -58.75 221.625 C-59.75933594 221.15578125 -60.76867187 220.6865625 -61.80859375 220.203125 C-91.63691019 206.10102586 -119.37172537 181.02480636 -130.88598633 149.64453125 C-137.56316007 130.58599477 -139.47674482 106.68011596 -131.75 87.625 C-131.4597998 86.90086914 -131.16959961 86.17673828 -130.87060547 85.43066406 C-116.08705894 49.39250777 -84.52078323 24.35101912 -49.375 9.3125 C-14.04635179 -5.15032899 -14.04635179 -5.15032899 0 0 Z " fill="#FEFEFD" transform="translate(218.75,251.375)"/>
<path d="M0 0 C7.52200095 4.36642982 11.97117867 9.98361512 14.2578125 18.359375 C14.66238256 21.26883629 14.31866929 23.65912543 13.9375 26.5625 C13.71251817 29.36174194 13.71251817 29.36174194 14.625 32 C18.2894824 35.23723333 22.36583679 37.42923085 26.61865234 39.80371094 C29.97688534 41.80606451 33.01070853 44.18903346 36.0625 46.625 C36.65039307 47.09244629 37.23828613 47.55989258 37.84399414 48.04150391 C42.0539967 51.43858604 45.94299795 55.03314393 49.625 59 C50.40875 59.78375 51.1925 60.5675 52 61.375 C52.86625 62.24125 53.7325 63.1075 54.625 64 C55.24761719 64.57621094 55.87023437 65.15242188 56.51171875 65.74609375 C72.39080895 80.8269532 86.39973373 102.2677994 93.625 123 C93.62890625 125.1171875 93.62890625 125.1171875 92.625 127 C90.26171875 129.32421875 90.26171875 129.32421875 87.3125 131.6875 C86.34699219 132.47511719 85.38148438 133.26273438 84.38671875 134.07421875 C80.37976341 136.86831915 80.37976341 136.86831915 77.625 137 C74.7265625 136.1796875 74.7265625 136.1796875 71.25 134.875 C54.6387446 128.98657347 37.09911077 125.95947553 19.625 124 C18.39958496 123.85751831 18.39958496 123.85751831 17.14941406 123.7121582 C-22.17447815 119.77479847 -65.18533314 121.72413326 -102.203125 136.53125 C-104.375 137 -104.375 137 -106.30859375 136.40625 C-109.12943474 134.48658505 -111.63965438 132.25893466 -114.1875 130 C-138.89700273 108.75513102 -172.78078522 90.2937014 -205.96386719 91.7734375 C-211.35395243 92.27991777 -215.75297587 94.30797362 -220.375 97 C-221.18066406 97.44601563 -221.98632812 97.89203125 -222.81640625 98.3515625 C-241.62968512 109.74776189 -250.42112736 134.86437629 -255.52734375 155.14453125 C-261.71318013 183.2801096 -258.62699975 211.45940692 -248.75 238.3125 C-248.41742188 239.22008057 -248.08484375 240.12766113 -247.7421875 241.06274414 C-246.05960907 245.42459502 -244.33150164 249.29708336 -241.5625 253.078125 C-230.73955023 268.14737289 -234.38963097 285.48853533 -236.375 303 C-237.035 303 -237.695 303 -238.375 303 C-239.85632273 300.86099456 -241.19175159 298.74294838 -242.5 296.5 C-243.09832642 295.48220459 -243.09832642 295.48220459 -243.70874023 294.44384766 C-255.48270964 274.16062604 -263.7899466 253.03419917 -268.375 230 C-268.60960937 228.83984375 -268.84421875 227.6796875 -269.0859375 226.484375 C-277.34101761 177.91100505 -265.43848602 126.39685437 -237.13671875 86.24316406 C-231.15066592 77.95295598 -224.43498616 70.38271409 -217.375 63 C-216.50101563 62.07316406 -215.62703125 61.14632812 -214.7265625 60.19140625 C-203.33531419 48.4159956 -190.47954553 39.23384072 -176.375 31 C-175.40385254 30.42403076 -175.40385254 30.42403076 -174.41308594 29.83642578 C-131.75645789 4.81646761 -82.9171138 1.99664358 -35.375 11 C-34.735625 9.948125 -34.09625 8.89625 -33.4375 7.8125 C-26.16223279 -2.46459666 -11.12593299 -5.09297701 0 0 Z M-15.375 16 C-15.705 16.66 -16.035 17.32 -16.375 18 C-14.7517313 18.6708712 -13.12632422 19.33657029 -11.5 20 C-10.59507812 20.37125 -9.69015625 20.7425 -8.7578125 21.125 C-6.48516142 22.11490226 -6.48516142 22.11490226 -4.375 22 C-4.65117533 20.05925139 -4.65117533 20.05925139 -5.375 18 C-9.0191774 15.5705484 -11.08741272 15.83820425 -15.375 16 Z " fill="#C0DADB" transform="translate(275.375,44)"/>
<path d="M0 0 C15.88821104 10.70983114 23.28890043 32.36713791 27.4921875 50.32421875 C32.91757668 78.91184633 28.30063677 108.22509738 15 134 C14.34 134 13.68 134 13 134 C12.56917114 133.07719238 12.56917114 133.07719238 12.12963867 132.13574219 C10.82032621 129.33825089 9.50399469 126.54411807 8.1875 123.75 C7.73568359 122.78191406 7.28386719 121.81382812 6.81835938 120.81640625 C6.37685547 119.88183594 5.93535156 118.94726562 5.48046875 117.984375 C5.07723389 117.12553711 4.67399902 116.26669922 4.25854492 115.38183594 C3.05744961 112.95389313 3.05744961 112.95389313 1.3449707 110.81347656 C0 109 0 109 0 107 C-5.84293118 105.89116253 -5.84293118 105.89116253 -11.5625 106.9375 C-13.75456389 110.08263514 -13.46522029 113.32833831 -13 117 C-11.54598095 120.47246163 -11.54598095 120.47246163 -9.4375 123.8125 C5.6380413 150.15672999 10.59917031 182.47505901 3 212 C-2.61238025 231.61238025 -2.61238025 231.61238025 -6 235 C-5.93071289 234.39994141 -5.86142578 233.79988281 -5.79003906 233.18164062 C-2.25651954 200.66320117 -8.346885 170.82737912 -28.71875 144.76953125 C-32.34023382 140.37290107 -36.08761009 136.13938864 -40 132 C-40.73476563 131.20078125 -41.46953125 130.4015625 -42.2265625 129.578125 C-54.50319406 116.68560891 -69.40231909 107.35327622 -85 99 C-85.66483398 98.6395459 -86.32966797 98.2790918 -87.01464844 97.90771484 C-104.47702366 88.59771316 -128.94304881 77.41082147 -149 81 C-162.8821316 85.36869946 -171.97154392 96.23239423 -181.75 106.4375 C-184.19819235 108.96330976 -186.65141882 111.48400499 -189.10968018 114.00001526 C-190.62791881 115.55691822 -192.13951597 117.12033099 -193.64373779 118.69078064 C-194.31914612 119.38893387 -194.99455444 120.0870871 -195.69042969 120.80639648 C-196.28329773 121.42481918 -196.87616577 122.04324188 -197.48699951 122.68040466 C-199 124 -199 124 -201 124 C-202.85295632 121.72438588 -204.5920973 119.43587622 -206.3125 117.0625 C-207.396611 115.59596636 -208.48126523 114.12983416 -209.56640625 112.6640625 C-210.71096737 111.10939699 -211.85549829 109.55470925 -213 108 C-215.23614739 104.96856471 -217.48774672 101.94949043 -219.75 98.9375 C-220.25571533 98.24857666 -220.76143066 97.55965332 -221.2824707 96.84985352 C-227.86726169 88.11011722 -235.28014529 81.86958375 -246 79 C-277.21948838 74.63636696 -315.91053259 96.37943591 -340 114 C-340.94842773 114.68811768 -340.94842773 114.68811768 -341.91601562 115.39013672 C-368.39118913 134.79920663 -389.01723461 162.21606263 -395 195 C-395.96465691 201.28348439 -396.15568041 207.39806011 -396.125 213.75 C-396.12209961 215.19947021 -396.12209961 215.19947021 -396.11914062 216.67822266 C-396.07791562 223.49752599 -395.8006941 230.22269635 -395 237 C-406.68539733 225.31460267 -408.22329289 198.43588278 -408.3125 182.6875 C-408.12124873 163.56237278 -403.7069002 146.02967246 -395 129 C-394.4534375 127.90945313 -393.906875 126.81890625 -393.34375 125.6953125 C-389.50438483 118.27835705 -385.13121536 111.58217701 -380 105 C-379.31164062 104.10667969 -378.62328125 103.21335937 -377.9140625 102.29296875 C-343.05412399 58.30903911 -287.35561063 35.20646307 -232.875 28.25 C-174.0094745 21.53288867 -114.32146835 33.88025352 -64.23828125 65.7578125 C-61.27553917 67.4020568 -59.33950272 67.4263195 -56 67 C-53.5 66.16666667 -53.5 66.16666667 -52 64 C-51.1691393 58.64864075 -51.1691393 58.64864075 -53.48046875 54.078125 C-57.01440249 51.16331453 -60.83853223 48.95108275 -64.8125 46.6875 C-65.64821533 46.20692139 -66.48393066 45.72634277 -67.3449707 45.23120117 C-74.70834713 41.05304659 -82.24878338 37.39477798 -90 34 C-90 33.34 -90 32.68 -90 32 C-88.14085373 30.36297759 -86.28742488 28.8617067 -84.3125 27.375 C-83.4294519 26.70621826 -83.4294519 26.70621826 -82.52856445 26.02392578 C-62.49942814 11.08142723 -25.06931256 -13.16228571 0 0 Z " fill="#9CBFE2" transform="translate(463,155)"/>
<path d="M0 0 C2.48889502 1.95610403 4.83772054 4.00412449 7.1796875 6.1328125 C8.20642578 6.96619141 8.20642578 6.96619141 9.25390625 7.81640625 C25.6263867 21.22961715 36.09804024 40.91046238 41.1796875 61.1328125 C41.37304688 61.84308594 41.56640625 62.55335938 41.765625 63.28515625 C43.69904663 71.91259426 41.16678048 79.86681273 36.89453125 87.3984375 C32.06626713 94.44582023 25.35480732 98.83751581 17.1796875 101.1328125 C14.44288339 101.33554689 11.80566655 101.44676403 9.06982422 101.45507812 C7.88310371 101.46997284 7.88310371 101.46997284 6.67240906 101.48516846 C4.06802823 101.51425517 1.46389125 101.52799123 -1.140625 101.5390625 C-2.03584743 101.54471725 -2.93106987 101.55037201 -3.85342026 101.55619812 C-8.59402384 101.5861252 -13.33450666 101.60461796 -18.07519531 101.61328125 C-22.94396988 101.62422254 -27.81161785 101.67223157 -32.68004036 101.72922516 C-36.44816179 101.76669778 -40.21601823 101.77690076 -43.98431015 101.779953 C-45.77749645 101.78596114 -47.57068063 101.8018647 -49.36368179 101.82832336 C-61.26466569 101.99136132 -70.91784988 101.27226957 -80.27102661 92.95300293 C-87.00909124 86.14620404 -89.96826916 78.89605076 -90.3828125 69.3828125 C-89.55820956 43.98504185 -69.96323579 20.37207563 -52.2578125 3.6953125 C-37.36895655 -9.11602866 -16.56881589 -10.96938227 0 0 Z " fill="#4E261F" transform="translate(282.8203125,367.8671875)"/>
<path d="M0 0 C1.29478271 0.47481812 1.29478271 0.47481812 2.61572266 0.95922852 C18.796079 6.98027691 33.80606698 14.13528151 47.9375 24.125 C48.50936035 24.52887939 49.0812207 24.93275879 49.67041016 25.34887695 C53.25996174 27.95292572 56.32681088 30.7417263 59.375 33.9375 C58.87274902 34.19853516 58.37049805 34.45957031 57.85302734 34.72851562 C16.36609221 56.32782263 -19.15407093 82.2445513 -39.92431641 125.55786133 C-41.56099744 128.949953 -43.21970628 132.02894483 -45.625 134.9375 C-49.83441873 126.13259159 -53.32053462 117.3322818 -56 107.9375 C-56.25023926 107.06649658 -56.50047852 106.19549316 -56.75830078 105.2980957 C-59.40760877 95.69044197 -59.80701484 86.61563749 -59.8125 76.6875 C-59.82474609 75.53636719 -59.83699219 74.38523437 -59.84960938 73.19921875 C-59.88767116 50.69201466 -53.24109745 23.8133545 -37.640625 6.76953125 C-26.62773844 -3.95045939 -13.95908657 -5.30322768 0 0 Z " fill="#9CC0E2" transform="translate(92.625,154.0625)"/>
<path d="M0 0 C14.69868416 9.31462575 25.6797928 24.10257542 32.8046875 39.77734375 C32.8046875 40.76734375 32.8046875 41.75734375 32.8046875 42.77734375 C26.28806553 42.25601399 20.40493558 40.56762183 14.171875 38.6171875 C9.66199462 37.49233334 6.22215461 37.30485471 1.8046875 38.77734375 C0.57470589 42.46728858 0.89806313 45.14549429 1.1796875 49.02734375 C1.26992188 50.31125 1.36015625 51.59515625 1.453125 52.91796875 C1.56914062 54.5215625 1.68515625 56.12515625 1.8046875 57.77734375 C2.2996875 65.20234375 2.2996875 65.20234375 2.8046875 72.77734375 C-8.0853125 72.77734375 -18.9753125 72.77734375 -30.1953125 72.77734375 C-29.1953125 59.77734375 -29.1953125 59.77734375 -28.6328125 55.65234375 C-28.26610904 52.40439885 -28.00227779 49.22880611 -27.8828125 45.96484375 C-27.84542969 45.05089844 -27.80804688 44.13695312 -27.76953125 43.1953125 C-27.99701006 40.69013482 -27.99701006 40.69013482 -29.77734375 38.953125 C-35.73523355 36.0559928 -41.63208924 38.26249889 -47.5078125 40.27734375 C-55.00105574 42.77734375 -55.00105574 42.77734375 -57.1953125 42.77734375 C-52.4399715 26.73407208 -37.85139074 7.8251639 -23.1953125 -0.41015625 C-15.64479061 -3.68364201 -7.48233067 -3.35868198 0 0 Z " fill="#E36252" transform="translate(271.1953125,380.22265625)"/>
<path d="M0 0 C6.53168981 3.79156628 11.08818704 8.645719 13.625 15.8125 C15.18606873 22.21386358 15.29992852 28.43727579 12.45703125 34.484375 C8.18832823 41.30514444 2.64884639 47.02469402 -5.1484375 49.5234375 C-12.8876199 51.17989408 -19.23639165 50.44566423 -26.1484375 46.55078125 C-31.47739225 42.83921101 -36.03071912 37.47698968 -37.375 31 C-38.12300562 22.7349996 -38.59038329 14.85158197 -33.375 8 C-25.11308161 -1.82498403 -11.92355303 -5.4580934 0 0 Z M-15.375 16 C-15.705 16.66 -16.035 17.32 -16.375 18 C-14.7517313 18.6708712 -13.12632422 19.33657029 -11.5 20 C-10.59507812 20.37125 -9.69015625 20.7425 -8.7578125 21.125 C-6.48516142 22.11490226 -6.48516142 22.11490226 -4.375 22 C-4.65117533 20.05925139 -4.65117533 20.05925139 -5.375 18 C-9.0191774 15.5705484 -11.08741272 15.83820425 -15.375 16 Z " fill="#4C251E" transform="translate(275.375,44)"/>
<path d="M0 0 C7.7024987 4.12327068 11.79143151 9.4386457 14.40234375 17.74609375 C16.33875122 25.64067803 14.71817274 32.19104811 11.0625 39.4375 C7.08536995 45.02196759 1.71965069 48.78300226 -4.9375 50.4375 C-13.09675035 51.34512303 -20.09060628 51.23032561 -26.9375 46.4375 C-27.824375 45.880625 -28.71125 45.32375 -29.625 44.75 C-35.09563237 39.27936763 -38.01212106 32.49974564 -38.25 24.8125 C-38.1656392 17.66292234 -35.62599972 12.0695731 -31.8125 6.125 C-23.01217139 -2.10139414 -11.41083605 -4.47865579 0 0 Z M-17.9375 18.4375 C-20.28299674 21.95574511 -20.51741403 23.29525694 -19.9375 27.4375 C-17.82344948 30.08006316 -16.0121509 31.88284147 -13 33.4375 C-9.72306112 33.4375 -7.67016778 32.16026882 -4.9375 30.4375 C-2.74880855 27.77300605 -2.93962154 26.37703599 -3.0625 22.875 C-3.63956959 19.45543522 -3.63956959 19.45543522 -5.6875 17.5625 C-10.74417351 15.03416325 -13.33088047 14.95140954 -17.9375 18.4375 Z " fill="#4B231C" transform="translate(56.9375,450.5625)"/>
<path d="M0 0 C2.54976793 2.14879636 4.79547277 4.50197062 7 7 C7.45890625 6.59007812 7.9178125 6.18015625 8.390625 5.7578125 C9.00421875 5.21898437 9.6178125 4.68015625 10.25 4.125 C10.85328125 3.59132813 11.4565625 3.05765625 12.078125 2.5078125 C15.37415362 -0.07809614 17.24800543 -1.01342847 21.5 -0.9375 C25 0 25 0 27.4375 2.1875 C29.31450908 5.56611634 29.62209008 7.18969823 29 11 C27.0475001 14.43370673 24.93939026 17.35454877 22 20 C23.2095017 22.85882221 24.48876746 24.53531674 26.625 26.875 C29 30 29 30 29.5625 33.0625 C28.87020639 36.67781108 27.54408967 38.38108416 25 41 C21.98221063 42.50889469 20.37677363 42.50026276 17 42 C14.09101882 39.90720778 11.53767209 37.5247905 9 35 C6.49727006 36.17496584 4.77942805 37.19672633 2.6875 39.0625 C-0.6668249 41.48073423 -2.88296867 41.92648158 -7 42 C-9.8125 41 -9.8125 41 -12 39 C-13.77976637 35.06968261 -14.36530222 33.05292993 -12.9375 28.9375 C-10.81433926 25.71851437 -8.54786442 22.89217042 -6 20 C-6.74056641 19.32904297 -6.74056641 19.32904297 -7.49609375 18.64453125 C-12.64749082 13.78335373 -12.64749082 13.78335373 -14.125 10.5 C-13.93846172 6.76923434 -12.83182993 4.23623287 -11 1 C-7.21930817 -1.45234064 -4.21494535 -1.43308142 0 0 Z " fill="#4B231C" transform="translate(473,460)"/>
<path d="M0 0 C2.50031654 3.75047482 2.53603554 5.55856266 2 10 C-0.0625 12.9375 -0.0625 12.9375 -3 15 C-8.46348398 15.43788713 -13.03730495 14.36606964 -18.25 13 C-34.27913229 9.14794765 -52.35636562 9.66199106 -68 15 C-72.43293429 15.54439544 -74.24737286 15.52844033 -77.9375 12.9375 C-80 10 -80 10 -80.625 6.5 C-80.03191536 3.17872604 -79.51995976 1.29280615 -76.9375 -0.9375 C-57.65823542 -11.50999993 -19.37168237 -9.29840754 0 0 Z " fill="#4E2720" transform="translate(391,332)"/>
<path d="M0 0 C0.69915527 0.11762695 1.39831055 0.23525391 2.11865234 0.35644531 C7.19289006 1.34131846 11.69252719 2.94204069 15.5625 6.4375 C17.19142957 9.88699791 16.65714623 12.07498821 15.625 15.6875 C13.6875 18.1875 13.6875 18.1875 10.625 19.6875 C6.15661986 19.94984808 1.8876313 18.99711074 -2.43359375 17.9375 C-17.47121312 14.25337181 -32.14848104 14.98755049 -47.26171875 17.93359375 C-50.23480858 18.49999939 -53.2059284 18.98461403 -56.20703125 19.37890625 C-56.93253174 19.47502197 -57.65803223 19.5711377 -58.40551758 19.67016602 C-60.375 19.6875 -60.375 19.6875 -63.375 18.1875 C-65.99935423 14.90705721 -66.4484891 12.87637854 -66.375 8.6875 C-64.21998853 5.02564246 -62.78915294 3.83989394 -58.765625 2.359375 C-57.38990505 2.03257562 -56.00932361 1.72568633 -54.625 1.4375 C-53.94695312 1.27765625 -53.26890625 1.1178125 -52.5703125 0.953125 C-35.77525963 -2.878446 -16.94177599 -2.85327532 0 0 Z " fill="#4E2720" transform="translate(188.375,327.3125)"/>
<path d="M0 0 C4.89746119 1.67815104 8.2195064 5.70870145 11.74169922 9.35205078 C12.55574219 10.13902344 13.36978516 10.92599609 14.20849609 11.73681641 C20.69531697 18.29937998 20.69531697 18.29937998 21.38623047 23.23095703 C21.27093001 28.23280075 21.27093001 28.23280075 19.30419922 30.78955078 C16.17478518 32.87582681 14.21265798 33.40428216 10.46826172 33.28173828 C6.06423292 32.28009996 3.36604885 28.92660374 0.30419922 25.78955078 C-0.66521284 24.83964806 -1.63669205 23.89185188 -2.60986328 22.94580078 C-11.58568748 14.15495573 -11.58568748 14.15495573 -12.00830078 8.91455078 C-11.97925235 5.71341403 -11.85732414 4.99953115 -9.82080078 2.35205078 C-6.42745272 -0.14305809 -4.25112439 -0.60620554 0 0 Z " fill="#4B231C" transform="translate(51.69580078125,35.21044921875)"/>
<path d="M0 0 C2.96600589 2.58574872 3.84398007 4.3879218 4.8125 8.1875 C3.51435974 14.27877352 -0.675099 17.70857346 -5 22 C-5.75023438 22.77472656 -6.50046875 23.54945312 -7.2734375 24.34765625 C-14.63983309 31.89205025 -14.63983309 31.89205025 -19.9375 32.3125 C-22.45206483 32.22005276 -24.0634654 31.97559023 -26.4375 31.0625 C-28.57557411 28.24024218 -29.12108597 25.89959273 -29.3359375 22.3828125 C-28.67266312 17.67819191 -25.31560565 15.14683098 -22 12 C-20.9843041 10.95959707 -19.97286499 9.91502793 -18.96484375 8.8671875 C-17.89439434 7.7644927 -16.8227772 6.66293029 -15.75 5.5625 C-14.97136597 4.76332153 -14.97136597 4.76332153 -14.17700195 3.94799805 C-9.42422708 -0.8094024 -6.59036918 -1.61868717 0 0 Z " fill="#4B241B" transform="translate(33,36)"/>
<path d="M0 0 C4.31562404 1.23188522 7.03382378 4.46257394 10.09375 7.59765625 C11.06316206 8.54755897 12.03464127 9.49535515 13.0078125 10.44140625 C21.96303468 19.21207386 21.96303468 19.21207386 22.40625 23.91015625 C22.03924371 28.24083051 21.31152399 29.71859531 18.09375 32.59765625 C14.62504722 33.80416156 12.85308522 33.88808811 9.41796875 32.57421875 C4.94524919 29.91476387 1.47626914 26.61051859 -2.21875 22.97265625 C-2.94642578 22.29847656 -3.67410156 21.62429687 -4.42382812 20.9296875 C-8.73126578 16.69852321 -10.76093251 13.65896571 -11.14697266 7.57104492 C-10.90625 5.59765625 -10.90625 5.59765625 -8.96875 2.53515625 C-5.86567374 0.57198555 -3.70347143 -0.269469 0 0 Z " fill="#4B231C" transform="translate(14.90625,-0.59765625)"/>
<path d="M0 0 C2.4375 1 2.4375 1 4 3 C5.74821958 9.66508715 5.74821958 9.66508715 3.42578125 13.80859375 C0.69529233 17.6126749 -2.52377473 20.92961855 -5.8125 24.25 C-6.69905273 25.18585937 -6.69905273 25.18585937 -7.60351562 26.140625 C-11.54127492 30.12562023 -14.43323883 32.07558027 -20 33 C-23.39081144 32.15229714 -26.10393772 30.99378255 -28 28 C-28.67459708 24.01987724 -28.96529227 21.56103371 -26.81640625 18.0859375 C-24.97441192 15.93915274 -23.02471641 13.97617868 -21 12 C-20.05009728 11.03058794 -19.1023011 10.05910873 -18.15625 9.0859375 C-8.40947983 -0.86592664 -8.40947983 -0.86592664 0 0 Z " fill="#4B241C" transform="translate(68,0)"/>
<path d="M0 0 C4.37582858 1.15995456 7.08791775 4.38134599 10.13671875 7.56640625 C10.96300781 8.36175781 11.78929687 9.15710938 12.640625 9.9765625 C19.70717335 17.13158094 19.70717335 17.13158094 20.01171875 21.87890625 C18.95262513 26.34222938 17.97127631 28.03722999 14.13671875 30.56640625 C10.45590356 30.70290125 8.05172718 30.2617342 5.08666992 28.00854492 C2.89412406 25.95068948 0.81957734 23.82130255 -1.23828125 21.62890625 C-1.96144531 20.88705078 -2.68460937 20.14519531 -3.4296875 19.38085938 C-9.74474361 12.84661276 -9.74474361 12.84661276 -10.17578125 8.19140625 C-9.86328125 4.56640625 -9.86328125 4.56640625 -8.36328125 2.12890625 C-5.54590103 0.36804361 -3.33284293 -0.19097621 0 0 Z " fill="#4D2720" transform="translate(429.86328125,225.43359375)"/>
<path d="M0 0 C3.08085647 1.54042823 4.38588317 2.68931546 5.84375 5.80078125 C7.10854565 9.67798219 7.07163373 11.74717507 5.9375 15.75 C3.86208421 19.23134261 2.5418636 21.032298 -1 23 C-5.91336509 23.62391938 -7.9727839 23.53263057 -12.375 21.25 C-16.14091285 18.0220747 -16.86438813 16.49173061 -17.3125 11.5625 C-16.90760426 6.94668856 -15.63622007 4.46585442 -12.19921875 1.38671875 C-8.36287018 -1.03229322 -4.37756715 -0.61725825 0 0 Z " fill="#4B231C" transform="translate(495,82)"/>
<path d="M0 0 C2.14705981 0.80925342 4.2926183 1.62249113 6.4375 2.4375 C8.22994141 3.11619141 8.22994141 3.11619141 10.05859375 3.80859375 C13 5 13 5 14 6 C13.65632458 12.18615752 13.65632458 12.18615752 11.4375 14.9375 C7.91346146 16.47361936 4.71566532 16.90500363 1 16 C-2.32378092 13.09169169 -3.77746819 11.23628781 -4.5625 6.875 C-3.87957246 3.38448145 -2.55500663 2.36706379 0 0 Z " fill="#BDD5D6" transform="translate(258,61)"/>
<path d="M0 0 C3.650625 0.928125 3.650625 0.928125 7.375 1.875 C8.13989746 2.06562012 8.90479492 2.25624023 9.69287109 2.45263672 C14.77777778 3.77777778 14.77777778 3.77777778 17 6 C14.07094006 11.36994321 10.85669698 14.05539358 5 16 C3.68 16 2.36 16 1 16 C0.67 10.72 0.34 5.44 0 0 Z " fill="#F8F6F6" transform="translate(290,437)"/>
<path d="M0 0 C-0.96355353 10.55808656 -0.96355353 10.55808656 -2 15 C-7.64107398 14.59706614 -10.14685269 12.94275538 -14 9 C-14.66796875 6.328125 -14.66796875 6.328125 -15 4 C-13.06441401 3.32779649 -11.12645628 2.66241923 -9.1875 2 C-8.10855469 1.62875 -7.02960938 1.2575 -5.91796875 0.875 C-3 0 -3 0 0 0 Z " fill="#F8F7F6" transform="translate(226,437)"/>
</svg>
