<?xml version="1.0" encoding="UTF-8"?>
<svg version="1.1" xmlns="http://www.w3.org/2000/svg" width="512" height="512">
<path d="M0 0 C7.80442929 7.97185104 14.38006007 17.03643587 20.8125 26.125 C25.23078486 24.71276283 29.47320684 23.04244534 33.75 21.25 C52.70432396 13.56695554 76.57125339 8.33130985 96.8125 14.125 C111.74345207 26.81523199 119.02622782 48.85750697 120.66748047 67.84179688 C122.19762089 91.93249261 119.09025325 114.34619121 113.21484375 137.6484375 C112.98031494 138.59291748 112.74578613 139.53739746 112.50415039 140.51049805 C112.07702807 142.1250596 111.6076718 143.72989488 111.07202148 145.31176758 C109.17027066 151.17748706 110.64478366 154.69108182 113 160.0625 C116.62278633 168.98019591 118.53356797 177.61218179 119.8125 187.125 C120.67681641 186.88523437 120.67681641 186.88523437 121.55859375 186.640625 C134.94388899 183.57847774 153.8939054 187.72124978 165.8125 194.125 C169.57389546 197.22672408 169.57389546 197.22672408 170.34375 200.125 C170.28994877 203.56827882 170.11543091 205.62011516 168.3125 208.625 C164.73890265 210.76915841 161.8075609 210.79193324 157.8125 210.125 C154.84782937 209.21736121 151.94150423 208.18491093 149.01953125 207.1484375 C139.81150364 204.20994392 130.40714759 203.81382224 120.8125 204.125 C120.78671875 205.094375 120.7609375 206.06375 120.734375 207.0625 C120.34612193 217.18508492 118.59362864 226.3975175 115.8125 236.125 C116.54968262 236.10759766 117.28686523 236.09019531 118.04638672 236.07226562 C125.16508926 235.97718357 131.92196127 236.4348479 138.9375 237.625 C139.94868896 237.79515625 140.95987793 237.9653125 142.00170898 238.140625 C150.12204711 239.61241686 157.9863855 241.71356474 165.875 244.125 C166.96248535 244.45693359 168.0499707 244.78886719 169.17041016 245.13085938 C174.81204881 246.93151407 179.87046703 248.83488097 184.8125 252.125 C186.41670518 255.33341035 186.28712745 258.6443987 185.8125 262.125 C184.3125 264.625 184.3125 264.625 181.8125 266.125 C175.25679554 266.66352994 170.46640839 265.22104586 164.375 262.9375 C146.33131474 256.58682088 127.9220632 253.37554254 108.8125 253.125 C108.57402344 253.95902344 108.33554687 254.79304688 108.08984375 255.65234375 C103.59239367 267.87935636 94.59549572 278.68162866 85.8125 288.125 C85.25433594 288.72699219 84.69617188 289.32898438 84.12109375 289.94921875 C69.92171253 305.08482291 54.07998059 316.36315706 35.8125 326.125 C34.7913208 326.67365723 34.7913208 326.67365723 33.74951172 327.23339844 C13.61978465 337.84897622 -8.86709174 344.16392596 -31.1875 348.125 C-31.87714844 348.24955566 -32.56679688 348.37411133 -33.27734375 348.50244141 C-82.40066706 356.97847495 -135.34192114 347.78830067 -179.4375 325.0625 C-180.37770996 324.58022949 -181.31791992 324.09795898 -182.28662109 323.60107422 C-198.07308122 315.22060773 -198.07308122 315.22060773 -200.3125 309 C-200.1875 306.125 -200.1875 306.125 -199.4375 303.5625 C-199.355 302.758125 -199.2725 301.95375 -199.1875 301.125 C-201.520992 298.29088845 -201.520992 298.29088845 -204.1875 296.125 C-204.55875 296.599375 -204.93 297.07375 -205.3125 297.5625 C-207.9268614 299.7411345 -209.80975193 299.98989008 -213.1875 300.125 C-218.87024143 297.21884233 -225.59347192 292.18393979 -227.98828125 286.0859375 C-228.25 284.25 -228.25 284.25 -228.1875 281.125 C-228.1875 280.135 -228.1875 279.145 -228.1875 278.125 C-230.63041788 276.15436042 -230.63041788 276.15436042 -233.8125 274.1875 C-239.11295587 270.69088745 -244.01382624 266.90847065 -248.8125 262.75 C-249.40369629 262.23832275 -249.99489258 261.72664551 -250.60400391 261.19946289 C-254.95818892 257.39349387 -254.95818892 257.39349387 -256.59057617 255.48217773 C-259.78451143 252.76774782 -264.22987254 253.80473348 -268.1875 254.125 C-272.16413476 254.64369149 -276.07268895 255.37983391 -280 256.1875 C-281.62119751 256.5127063 -281.62119751 256.5127063 -283.27514648 256.84448242 C-291.51043192 258.57933753 -299.40819564 260.93374491 -307.28637695 263.88891602 C-312.51261117 265.80253157 -316.60918039 266.58324093 -322.1875 266.125 C-324.6875 264.625 -324.6875 264.625 -326.1875 262.125 C-326.73436219 259.34511721 -326.91741469 256.87291413 -326.1875 254.125 C-323.22607041 250.27586915 -319.57938214 248.77041703 -315.125 247.1875 C-314.43108154 246.93444092 -313.73716309 246.68138184 -313.0222168 246.4206543 C-300.40390856 241.95059167 -287.24343058 239.008087 -274.1875 236.125 C-274.52483154 235.62685791 -274.86216309 235.12871582 -275.2097168 234.61547852 C-276.76863293 232.30870937 -278.32182754 229.99813992 -279.875 227.6875 C-280.40544922 226.90439453 -280.93589844 226.12128906 -281.48242188 225.31445312 C-291.1875 210.84614647 -291.1875 210.84614647 -291.1875 207.125 C-292.6725 207.8675 -292.6725 207.8675 -294.1875 208.625 C-298.43325281 210.42492361 -301.59410507 210.65211089 -306.1875 210.125 C-308.6875 208.625 -308.6875 208.625 -310.1875 206.125 C-310.73490127 203.34237689 -310.75954407 200.90513419 -310.1875 198.125 C-308.0041033 195.16181876 -305.61306042 193.45102339 -302.1875 192.125 C-301.1975 192.125 -300.2075 192.125 -299.1875 192.125 C-299.57421875 190.90167969 -299.9609375 189.67835938 -300.359375 188.41796875 C-303.09007619 179.63826817 -305.62126142 170.88014381 -307.5 161.875 C-307.65887695 161.11469482 -307.81775391 160.35438965 -307.98144531 159.57104492 C-309.50046848 152.01014885 -310.34397383 144.57989981 -310.42578125 136.875 C-310.4355751 136.10767548 -310.44536896 135.34035095 -310.45545959 134.54977417 C-310.63244774 117.07277276 -310.36904305 100.20363944 -306.1875 83.125 C-305.97851074 82.26358398 -305.76952148 81.40216797 -305.55419922 80.51464844 C-293.90797338 34.33103826 -262.88203557 -5.35624856 -222.3125 -29.75 C-149.19547448 -72.64151558 -60.031518 -57.85027801 0 0 Z " fill="#4D251E" transform="translate(326.1875,123.875)"/>
<path d="M0 0 C0.02187378 1.51968384 0.02187378 1.51968384 0.04418945 3.07006836 C0.10262428 6.86679531 0.17984973 10.66295687 0.26245117 14.45922852 C0.29548975 16.09520214 0.3235857 17.73128399 0.34643555 19.36743164 C0.53286201 32.36571951 1.36203127 43.96865949 10.8203125 53.9140625 C19.35519678 61.77954409 27.20900936 64.33914515 38.68359375 64.2109375 C48.36591679 63.5951007 56.82283226 58.76689565 63.3125 51.625 C69.40145491 43.97997883 71.09171794 36.72593213 71.31640625 27.07421875 C71.3475779 25.95283257 71.3475779 25.95283257 71.37937927 24.80879211 C71.44444189 22.43511604 71.5035571 20.06133513 71.5625 17.6875 C71.60572646 16.07225505 71.64934204 14.45702047 71.69335938 12.84179688 C71.80007851 8.89463701 71.90146619 4.94737233 72 1 C80.40894732 1.69220631 87.96755411 3.41443254 96 6 C97.12656006 6.35989014 97.12656006 6.35989014 98.27587891 6.72705078 C121.66162151 14.29708465 143.42651935 24.67960098 162 41 C162.83917969 41.71800781 163.67835938 42.43601563 164.54296875 43.17578125 C186.1335195 62.02148679 203.95911654 88.7010191 206 118 C206.70608781 132.21730768 206.61736504 145.4490374 202 159 C201.78569336 159.65758301 201.57138672 160.31516602 201.35058594 160.99267578 C196.67114761 175.23873875 189.90170435 187.65974615 180 199 C179.25492187 199.85464844 178.50984375 200.70929688 177.7421875 201.58984375 C175.52465752 204.08926314 173.27372449 206.55169338 171 209 C170.44957031 209.60457031 169.89914062 210.20914063 169.33203125 210.83203125 C149.22654378 232.02966866 120.46752068 244.71694897 93 253 C91.97181152 253.31493408 91.97181152 253.31493408 90.92285156 253.63623047 C37.44178373 269.79509467 -23.00153579 261.80795289 -71.89868164 235.94458008 C-76.50097226 233.45856812 -80.95500723 230.83018624 -85.32202148 227.94970703 C-87.69131294 226.60872874 -89.34582526 226.48391047 -92 227 C-94.25132517 227.91568906 -94.25132517 227.91568906 -96 229 C-97.98 227.02 -99.96 225.04 -102 223 C-102.99 223.99 -103.98 224.98 -105 226 C-108.42468663 227.04229593 -110.16746223 227.42576036 -113.3984375 225.7734375 C-118.10656063 222.56399621 -123.66498442 218.39940553 -125.80078125 212.9609375 C-126.0625 211.125 -126.0625 211.125 -126 208 C-126 207.01 -126 206.02 -126 205 C-128.68582683 202.88147436 -128.68582683 202.88147436 -132 200.875 C-134.01264226 199.6031219 -136.01630009 198.31656274 -138 197 C-138 196.67 -138 196.34 -138 196 C-137.28972656 195.87882813 -136.57945312 195.75765625 -135.84765625 195.6328125 C-134.92855469 195.46523438 -134.00945312 195.29765625 -133.0625 195.125 C-132.14597656 194.96257812 -131.22945312 194.80015625 -130.28515625 194.6328125 C-129.53105469 194.42398438 -128.77695313 194.21515625 -128 194 C-126.44675753 190.89351506 -126.73556835 188.44113726 -127 185 C-128.14092887 182.50864167 -129.28277167 180.32432336 -130.6875 178 C-134.89771877 170.56730525 -137.67298745 163.25031722 -140 155 C-140.3196875 153.9171875 -140.639375 152.834375 -140.96875 151.71875 C-144.61025328 137.55734836 -144.48874522 121.17553376 -141 107 C-140.75507813 105.93394531 -140.51015625 104.86789062 -140.2578125 103.76953125 C-131.34796206 68.87918771 -105.41150673 42.07287873 -75.16796875 24.078125 C-53.32516628 11.48388264 -25.65063748 -0.6153562 0 0 Z " fill="#EDEDD0" transform="translate(224,197)"/>
<path d="M0 0 C5.80788771 5.93247936 10.85060597 12.4820684 15.8125 19.125 C16.522854 20.0543335 16.522854 20.0543335 17.24755859 21.00244141 C20.8125 25.77783392 20.8125 25.77783392 20.8125 29.125 C18.77541355 30.59096926 16.78279433 31.86058154 14.625 33.125 C4.42843222 39.38858731 -10.74785339 49.24570678 -16.1875 60.125 C-20.87891505 59.55879473 -25.52815675 58.91935795 -30.1875 58.125 C-30.22488281 56.94164062 -30.26226562 55.75828125 -30.30078125 54.5390625 C-30.82357615 40.9291127 -31.90711604 30.52200909 -41.8515625 20.4375 C-49.50944744 13.44399777 -57.46040514 10.79027174 -67.765625 10.98046875 C-78.38481226 11.61419444 -85.74876622 15.16249626 -93 23 C-99.5248344 30.91760648 -101.20395481 38.42070383 -101.75 48.4375 C-101.81477539 49.54834961 -101.81477539 49.54834961 -101.88085938 50.68164062 C-101.98620432 52.49591464 -102.08728316 54.3104355 -102.1875 56.125 C-103.56044222 56.46671006 -104.93600118 56.79791117 -106.3125 57.125 C-107.07820312 57.310625 -107.84390625 57.49625 -108.6328125 57.6875 C-111.72594804 58.21721129 -114.0527042 58.56315443 -117.1875 58.125 C-119.46154089 56.21851105 -121.2924544 54.43880912 -123.25 52.25 C-142.61558951 31.83296079 -171.4913028 15.18509509 -200.15234375 14.00268555 C-203.6647584 13.91868199 -207.17414147 13.89012749 -210.6875 13.875 C-212.48380859 13.8440625 -212.48380859 13.8440625 -214.31640625 13.8125 C-220.67649423 13.78432685 -225.68235133 13.77697081 -231.1875 17.125 C-248.34148274 34.1403647 -251.43419974 61.25706013 -251.5625 83.9375 C-251.56739441 84.72902466 -251.57228882 85.52054932 -251.57733154 86.33605957 C-251.61743643 102.09767865 -249.77140267 117.20993773 -245.54199219 132.45117188 C-243.44217966 140.02461337 -245.5220368 144.08378828 -248.9375 150.875 C-254.60099951 162.51269256 -257.77266781 174.45119362 -260.1875 187.125 C-260.97398926 187.1751123 -261.76047852 187.22522461 -262.57080078 187.27685547 C-266.15195614 187.509686 -269.73217652 187.75472222 -273.3125 188 C-274.55 188.07863281 -275.7875 188.15726563 -277.0625 188.23828125 C-278.26132812 188.32207031 -279.46015625 188.40585937 -280.6953125 188.4921875 C-281.79504395 188.56550293 -282.89477539 188.63881836 -284.02783203 188.71435547 C-287.29232835 189.13862396 -290.08424003 190.05384865 -293.1875 191.125 C-296.5625 191.25 -296.5625 191.25 -299.1875 191.125 C-302.47422059 182.27183348 -304.94175469 173.41643563 -306.9375 164.1875 C-307.25303833 162.73234985 -307.25303833 162.73234985 -307.57495117 161.24780273 C-309.28704288 153.10888989 -310.33754399 145.1854844 -310.42578125 136.875 C-310.4355751 136.10767548 -310.44536896 135.34035095 -310.45545959 134.54977417 C-310.63244774 117.07277276 -310.36904305 100.20363944 -306.1875 83.125 C-305.87401611 81.83287598 -305.87401611 81.83287598 -305.55419922 80.51464844 C-293.90797338 34.33103826 -262.88203557 -5.35624856 -222.3125 -29.75 C-149.19547448 -72.64151558 -60.031518 -57.85027801 0 0 Z " fill="#C0DADB" transform="translate(326.1875,123.875)"/>
<path d="M0 0 C16.79973504 9.37414683 28.03708896 26.90805803 33.58203125 44.95703125 C34.87854105 51.48804792 35.32591939 58.77664359 31.8125 64.625 C25.3538684 73.18268687 16.19622018 75.90149818 5.98828125 77.66113281 C1.09216792 78.31874803 -3.75299019 78.40272197 -8.6875 78.375 C-9.73115723 78.37008545 -10.77481445 78.3651709 -11.85009766 78.36010742 C-24.29113886 78.17323305 -39.00240499 77.43320514 -48.64453125 68.546875 C-53.66808224 62.81394649 -54.51744437 58.22057013 -54.3671875 50.7578125 C-52.7308625 34.29011625 -42.84089477 19.20914036 -31 8.0625 C-21.44984662 0.24873814 -12.25843487 -5.59834034 0 0 Z " fill="#FDFCFC" transform="translate(174,271.9375)"/>
<path d="M0 0 C16.79973504 9.37414683 28.03708896 26.90805803 33.58203125 44.95703125 C34.87854105 51.48804792 35.32591939 58.77664359 31.8125 64.625 C25.3538684 73.18268687 16.19622018 75.90149818 5.98828125 77.66113281 C1.09216792 78.31874803 -3.75299019 78.40272197 -8.6875 78.375 C-9.73115723 78.37008545 -10.77481445 78.3651709 -11.85009766 78.36010742 C-24.29113886 78.17323305 -39.00240499 77.43320514 -48.64453125 68.546875 C-53.51052802 62.993749 -54.44822159 58.63266194 -54.31640625 51.41796875 C-52.74511735 34.75454691 -42.86290375 19.03128362 -30.9609375 7.66015625 C-21.62936686 0.05734272 -11.80302844 -5.42603677 0 0 Z " fill="#FDFDFC" transform="translate(358,271.9375)"/>
<path d="M0 0 C17.72247488 11.87694995 30.4258073 32.59897818 35.29638672 53.18847656 C37.4248614 64.04177992 35.64765948 75.10641318 30.203125 84.72460938 C22.51486042 95.59359807 8.85484707 100.87881259 -3.85546875 103.24023438 C-26.71564289 106.79807267 -51.30079387 105.60632602 -71.17578125 92.94335938 C-78.432783 87.54712731 -82.85599381 78.88425797 -84.32421875 70.12304688 C-86.41122581 49.90226736 -77.52587532 31.31389628 -65.24511719 15.70019531 C-57.90481479 6.7571582 -49.81631673 -0.00102415 -39.32421875 -4.87695312 C-38.31101562 -5.38548828 -38.31101562 -5.38548828 -37.27734375 -5.90429688 C-24.69228527 -11.54677144 -11.02011015 -6.80206799 0 0 Z M-53.91015625 27.37695312 C-63.11728527 40.020164 -70.52004726 54.05450743 -68.32421875 70.12304688 C-65.99209679 76.17888621 -61.90433326 80.50930578 -55.984375 83.17773438 C-37.38898207 90.48783145 -13.19580563 91.17959288 5.5625 84.02148438 C12.27307306 80.9845827 16.82508903 77.07625703 19.67578125 70.12304688 C20.75300326 61.10444402 19.15297808 53.41570379 15.67578125 45.12304688 C15.32515625 44.28128906 14.97453125 43.43953125 14.61328125 42.57226562 C8.56790361 29.41097473 -1.4770024 17.03647267 -14.32421875 10.12304688 C-15.10796875 9.68992187 -15.89171875 9.25679688 -16.69921875 8.81054688 C-32.34385398 4.71314241 -44.90032106 15.63760618 -53.91015625 27.37695312 Z " fill="#4E2720" transform="translate(188.32421875,261.876953125)"/>
<path d="M0 0 C17.54659814 11.75908383 30.79747658 32.72596063 35.1328125 53.29101562 C35.42186958 55.2219169 35.55008017 57.17468013 35.67578125 59.12304688 C35.73894531 59.86683594 35.80210937 60.610625 35.8671875 61.37695312 C36.37218919 71.5258581 33.37803858 81.46624653 26.70703125 89.19726562 C10.9426841 104.14307936 -11.78203882 104.71756834 -32.140625 104.43554688 C-47.47752702 103.95382243 -64.19813217 100.51404028 -75.32421875 89.12304688 C-83.08740791 79.500526 -85.54143511 69.43984987 -84.57421875 57.12597656 C-81.99448342 36.45786268 -68.48238146 16.64448505 -53.12109375 3.27929688 C-48.79375922 -0.05686047 -44.26917891 -2.57891182 -39.32421875 -4.87695312 C-38.31101562 -5.38548828 -38.31101562 -5.38548828 -37.27734375 -5.90429688 C-24.69228527 -11.54677144 -11.02011015 -6.80206799 0 0 Z M-53.91015625 27.37695312 C-62.9430454 39.77906408 -70.68691644 54.2907642 -68.32421875 70.12304688 C-65.93063566 76.16118034 -61.92014992 80.5021764 -55.984375 83.17773438 C-37.38898207 90.48783145 -13.19580563 91.17959288 5.5625 84.02148438 C12.27307306 80.9845827 16.82508903 77.07625703 19.67578125 70.12304688 C20.75300326 61.10444402 19.15297808 53.41570379 15.67578125 45.12304688 C15.32515625 44.28128906 14.97453125 43.43953125 14.61328125 42.57226562 C8.56790361 29.41097473 -1.4770024 17.03647267 -14.32421875 10.12304688 C-15.10796875 9.68992187 -15.89171875 9.25679688 -16.69921875 8.81054688 C-32.34385398 4.71314241 -44.90032106 15.63760618 -53.91015625 27.37695312 Z " fill="#4E2720" transform="translate(372.32421875,261.876953125)"/>
<path d="M0 0 C9.00974263 1.77034506 18.18675191 1.653416 27.33178711 1.65795898 C29.27214844 1.67632812 29.27214844 1.67632812 31.25170898 1.69506836 C38.06699088 1.70542069 44.46633772 1.36445047 51.13916016 -0.06201172 C55.79071276 -1.02636413 59.07293963 -1.20427164 63.33178711 0.97045898 C65.82880565 3.99714813 65.98401815 5.66468822 66.05834961 9.47045898 C65.0055285 12.64130843 63.17422109 13.70995952 60.39428711 15.47045898 C57.06225586 16.29858398 57.06225586 16.29858398 53.58178711 16.72045898 C52.4203418 16.86999023 51.25889648 17.01952148 50.06225586 17.17358398 C49.18182617 17.27155273 48.30139648 17.36952148 47.39428711 17.47045898 C47.29631836 18.12014648 47.19834961 18.76983398 47.09741211 19.43920898 C46.16517767 23.45817524 44.69340149 27.15370483 43.14428711 30.97045898 C42.85682617 31.71682617 42.56936523 32.46319336 42.27319336 33.23217773 C39.85172187 39.20655062 36.82639911 42.84905098 31.39428711 46.47045898 C26.5843145 47.18243428 22.52144701 46.98087102 18.08178711 44.97045898 C13.48020548 40.68991793 10.87564213 36.33365108 9.15991211 30.27514648 C7.02539656 22.17401023 7.02539656 22.17401023 1.47924805 16.42211914 C-3.01596474 15.01974928 -7.57078413 14.69548988 -12.2565918 14.55932617 C-14.64979152 14.46879149 -16.98870312 14.22880352 -19.36743164 13.95483398 C-34.92899364 12.34257976 -54.71442296 10.82144297 -69.60571289 16.47045898 C-72.64067899 19.41616137 -73.47477599 22.46312094 -74.60571289 26.47045898 C-80.53074825 41.8254802 -80.53074825 41.8254802 -86.60571289 45.47045898 C-91.82987955 47.21184787 -96.65121216 47.23692986 -101.79321289 45.22045898 C-108.20382106 38.95230878 -111.87174468 28.94576045 -114.60571289 20.47045898 C-114.60571289 19.48045898 -114.60571289 18.49045898 -114.60571289 17.47045898 C-115.18579102 17.42147461 -115.76586914 17.37249023 -116.36352539 17.32202148 C-121.77717882 16.80388304 -126.72652866 16.19796952 -131.48071289 13.34545898 C-133.37224635 10.19290323 -133.32892659 6.96716211 -132.60571289 3.47045898 C-130.66821289 0.90795898 -130.66821289 0.90795898 -127.60571289 -0.52954102 C-124.53761187 -0.603323 -121.62171705 -0.05199843 -118.60571289 0.47045898 C-102.27092115 2.61182664 -86.78473033 1.50725616 -70.60571289 -1.02954102 C-46.9686494 -4.71461717 -23.50087666 -5.0621751 0 0 Z " fill="#4E261F" transform="translate(285.605712890625,388.529541015625)"/>
<path d="M0 0 C1.88673137 2.91814452 3.11986172 5.7103836 4.3203125 8.96875 C4.78050781 9.92910156 5.24070312 10.88945312 5.71484375 11.87890625 C11.57556897 24.4279519 12.84804752 37.41950878 12.6953125 51.09375 C12.68982895 52.17092789 12.68982895 52.17092789 12.68423462 53.26986694 C12.58895669 69.27766988 10.73916313 84.54978184 6.3203125 99.96875 C5.6603125 99.96875 5.0003125 99.96875 4.3203125 99.96875 C2.53825101 97.94354535 0.89021912 95.92161908 -0.7421875 93.78125 C-1.20173828 93.20310547 -1.66128906 92.62496094 -2.13476562 92.02929688 C-4.64748924 88.7638631 -6.57276606 86.21416031 -6.6796875 81.96875 C-6.24560179 79.75918255 -5.71867895 77.58238997 -5.18212891 75.39550781 C-4.35169571 71.38457198 -4.33950733 67.42717629 -4.3671875 63.34375 C-4.37210205 62.47274658 -4.3770166 61.60174316 -4.38208008 60.7043457 C-4.61383311 47.74875682 -6.87090026 30.6118911 -14.90625 20.0390625 C-18.55217844 17.31745395 -20.18712962 17.41525211 -24.6796875 17.96875 C-28.02373886 18.64132903 -31.28063308 19.51464515 -34.5546875 20.46875 C-35.47362793 20.73574707 -36.39256836 21.00274414 -37.33935547 21.27783203 C-48.74331357 24.72957458 -59.38470197 29.09924653 -68.6796875 36.65625 C-72.97983681 39.9870767 -72.97983681 39.9870767 -76.06640625 39.90625 C-78.43644671 39.13367314 -80.48334688 38.1427939 -82.6796875 36.96875 C-84.19312986 36.38665679 -85.71380028 35.82288898 -87.2421875 35.28125 C-88.3765625 34.848125 -89.5109375 34.415 -90.6796875 33.96875 C-75.52637471 15.31851887 -24.43983097 -18.52581939 0 0 Z " fill="#6A4E5A" transform="translate(417.6796875,155.03125)"/>
<path d="M0 0 C7.76710598 1.0955816 15.35179281 2.83284853 22.65820312 5.70556641 C23.96724609 6.17542969 23.96724609 6.17542969 25.30273438 6.65478516 C40.29210403 12.37362097 52.38614085 21.47210709 63.65820312 32.70556641 C60.68926636 34.68485758 58.14199694 35.73298425 54.78320312 36.89306641 C53.75453125 37.25787109 52.72585937 37.62267578 51.66601562 37.99853516 C45.68929336 39.40345299 42.23276868 37.05151695 37.15820312 33.95556641 C27.85897633 28.47171997 18.07436695 25.04542529 7.78320312 21.89306641 C7.08155029 21.67368408 6.37989746 21.45430176 5.65698242 21.22827148 C1.24398837 19.92866546 -2.71201475 19.0762225 -7.34179688 19.70556641 C-13.88204324 24.58772214 -15.26093774 32.21557741 -17.34179688 39.70556641 C-17.66535156 40.82833984 -17.98890625 41.95111328 -18.32226562 43.10791016 C-19.83208096 49.29602652 -20.4165084 54.76450478 -20.20507812 61.11572266 C-20.17115967 62.26129639 -20.13724121 63.40687012 -20.10229492 64.5871582 C-20.01372342 66.87070703 -19.88279087 69.15310821 -19.7043457 71.43139648 C-19.50446475 76.18655358 -19.40477898 79.39180437 -22.23144531 83.35498047 C-24.50402109 85.63314226 -26.8507014 87.67173341 -29.34179688 89.70556641 C-30.68909961 91.02478242 -32.02704523 92.35390681 -33.34179688 93.70556641 C-36.63297849 80.92285209 -37.76046871 68.53766253 -37.77929688 55.39306641 C-37.78501709 54.68539124 -37.7907373 53.97771606 -37.79663086 53.24859619 C-37.88122899 38.33472186 -35.99174704 24.24762178 -29.34179688 10.70556641 C-28.75978516 9.1296875 -28.75978516 9.1296875 -28.16601562 7.52197266 C-22.78940258 -4.36715761 -11.01378986 -1.38476132 0 0 Z " fill="#6A4E5A" transform="translate(127.341796875,153.29443359375)"/>
<path d="M0 0 C6.08330332 5.75366619 8.51933989 11.67405899 9.4375 19.9375 C9.15002789 26.78207402 5.95961255 34.30847461 1 39 C-6.51798734 43.87765907 -13.21248957 46.29116691 -22.23828125 44.57421875 C-29.06204078 42.65319491 -34.30383153 38.89619721 -38.3515625 33.046875 C-42.19742391 26.01918581 -42.62640494 19.15984742 -40.8515625 11.45703125 C-38.52522144 4.7447903 -33.3545284 -0.86056037 -27 -4 C-17.8197669 -7.28539164 -7.55082092 -6.497218 0 0 Z M-23 14 C-24.54586876 17.09173752 -24.29359521 19.59429552 -24 23 C-21.95109294 25.99455648 -20.49048445 26.83302657 -17.0625 28 C-13.90995371 28.24788025 -13.90995371 28.24788025 -11.1875 26.4375 C-8.53931088 23.4866607 -8 21.94960942 -8 18 C-9.36941145 14.45564096 -10.45228887 13.2921126 -13.8125 11.5 C-17.86932596 10.86363514 -19.60625664 11.7901206 -23 14 Z " fill="#4B231C" transform="translate(71,455)"/>
<path d="M0 0 C5.61884231 5.55499183 8.64793977 11.14946669 8.75 19.1484375 C8.25887972 27.16597603 5.87068365 32.95146121 0.03125 38.51171875 C-5.11684183 42.70291618 -10.24166467 44.37354889 -16.78125 45.07421875 C-25.40117386 44.15065548 -31.41877808 41.14528516 -37.28125 34.69921875 C-41.64592038 28.77033124 -42.8673458 22.96680668 -42.28125 15.69921875 C-40.37609296 7.08739404 -36.61070522 1.63084208 -29.28125 -3.30078125 C-19.31218619 -7.79663356 -8.47531904 -7.17275976 0 0 Z M-23.28125 13.69921875 C-25.3158067 16.26452937 -25.29546348 17.46706523 -25.09375 20.76171875 C-24.24554365 23.82831093 -23.91308484 24.97491316 -21.28125 26.69921875 C-17.78264683 27.76401102 -15.96333897 27.96275312 -12.53125 26.63671875 C-9.61489462 24.12541273 -8.87691019 22.49655246 -8.28125 18.69921875 C-9.5051529 14.72153433 -10.43825278 13.16755054 -14.09375 11.13671875 C-18.18358622 10.57536868 -19.90121726 11.39465098 -23.28125 13.69921875 Z " fill="#4B241C" transform="translate(471.28125,19.30078125)"/>
<path d="M0 0 C3.86580158 0.98975996 6.41353544 3.71253252 9.10546875 6.5390625 C11.64830282 5.35062216 13.31862131 4.34319258 15.41796875 2.4140625 C18.95834825 -0.05596971 20.87010994 -0.14162017 25.10546875 0.5390625 C28.72244068 3.07863854 29.90829322 4.57110992 30.79296875 8.9140625 C29.87853827 13.73560505 27.54239531 16.17373858 24.10546875 19.5390625 C25.29390909 22.08189657 26.30133867 23.75221506 28.23046875 25.8515625 C30.70050096 29.391942 30.78615142 31.30370369 30.10546875 35.5390625 C27.56589271 39.15603443 26.07342133 40.34188697 21.73046875 41.2265625 C16.9089262 40.31213202 14.47079267 37.97598906 11.10546875 34.5390625 C8.56118206 35.7256836 6.92939053 36.7053586 4.85546875 38.6640625 C0.9105638 41.35377042 -1.16912671 41.13911387 -5.89453125 40.5390625 C-8.39453125 39.0390625 -8.39453125 39.0390625 -9.89453125 36.5390625 C-10.5809885 32.35167325 -10.87777881 30.0480349 -8.54296875 26.46484375 C-7.06097973 24.73351535 -5.54424976 23.11022298 -3.89453125 21.5390625 C-5.08115235 18.99477581 -6.06082735 17.36298428 -8.01953125 15.2890625 C-10.70923917 11.34415755 -10.49458262 9.26446704 -9.89453125 4.5390625 C-7.47355832 0.50410762 -4.65886458 -0.19229835 0 0 Z " fill="#4B241C" transform="translate(459.89453125,435.4609375)"/>
<path d="M0 0 C4.16246229 0.86717964 5.4239828 2.24598492 8 5.625 C8.71373958 8.9417673 8.65395133 12.18087163 8.59375 15.5625 C8.59379028 16.52019287 8.59383057 17.47788574 8.59387207 18.46459961 C8.58852119 20.48525572 8.57095699 22.5059116 8.54199219 24.52636719 C8.50014119 27.61458114 8.50092523 30.70061277 8.5078125 33.7890625 C8.49731926 35.75522345 8.48438044 37.72137318 8.46875 39.6875 C8.46854858 40.60845459 8.46834717 41.52940918 8.46813965 42.47827148 C8.3791848 47.31065921 8.1992492 50.73264541 5 54.625 C2.19084526 56.02957737 0.11189466 55.87395157 -3 55.625 C-6.1359157 53.84515595 -6.84102736 53.10191793 -8 49.625 C-8.11022348 48.19436782 -8.16859145 46.7593736 -8.19287109 45.32470703 C-8.20893402 44.460159 -8.22499695 43.59561096 -8.24154663 42.7048645 C-8.28610987 38.76142283 -8.32704275 34.81814627 -8.35009766 30.87451172 C-8.36667159 28.79497091 -8.39398039 26.7154874 -8.43212891 24.63623047 C-8.48689101 21.63479122 -8.50876848 18.63468398 -8.5234375 15.6328125 C-8.54610687 14.7055838 -8.56877625 13.7783551 -8.59213257 12.82302856 C-8.57721704 8.26546381 -8.48866962 6.26811486 -5.65478516 2.53857422 C-3 0.625 -3 0.625 0 0 Z " fill="#4D251E" transform="translate(336,285.375)"/>
<path d="M0 0 C4.16246229 0.86717964 5.4239828 2.24598492 8 5.625 C8.71373958 8.9417673 8.65395133 12.18087163 8.59375 15.5625 C8.59379028 16.52019287 8.59383057 17.47788574 8.59387207 18.46459961 C8.58852119 20.48525572 8.57095699 22.5059116 8.54199219 24.52636719 C8.50014119 27.61458114 8.50092523 30.70061277 8.5078125 33.7890625 C8.49731926 35.75522345 8.48438044 37.72137318 8.46875 39.6875 C8.46854858 40.60845459 8.46834717 41.52940918 8.46813965 42.47827148 C8.3791848 47.31065921 8.1992492 50.73264541 5 54.625 C2.19084526 56.02957737 0.11189466 55.87395157 -3 55.625 C-6.1359157 53.84515595 -6.84102736 53.10191793 -8 49.625 C-8.11022348 48.19436782 -8.16859145 46.7593736 -8.19287109 45.32470703 C-8.20893402 44.460159 -8.22499695 43.59561096 -8.24154663 42.7048645 C-8.28610987 38.76142283 -8.32704275 34.81814627 -8.35009766 30.87451172 C-8.36667159 28.79497091 -8.39398039 26.7154874 -8.43212891 24.63623047 C-8.48689101 21.63479122 -8.50876848 18.63468398 -8.5234375 15.6328125 C-8.54610687 14.7055838 -8.56877625 13.7783551 -8.59213257 12.82302856 C-8.57721704 8.26546381 -8.48866962 6.26811486 -5.65478516 2.53857422 C-3 0.625 -3 0.625 0 0 Z " fill="#4D251E" transform="translate(176,285.375)"/>
<path d="M0 0 C0.12060791 1.01199463 0.12060791 1.01199463 0.24365234 2.04443359 C0.61672216 5.15512272 0.99582663 8.26504919 1.375 11.375 C1.50132813 12.43589844 1.62765625 13.49679687 1.7578125 14.58984375 C2.56047606 21.13155178 3.59515715 27.56008495 5 34 C-9.03807927 36.05196982 -9.03807927 36.05196982 -13.65771484 32.8515625 C-16.71528829 29.66435047 -18.84367905 25.90109641 -20.91357422 22.02392578 C-22.00506183 19.9905702 -23.17452197 18.02685397 -24.37890625 16.05859375 C-30 6.73831115 -30 6.73831115 -30 3 C-19.93061665 -0.31697334 -10.45861049 -0.31375831 0 0 Z " fill="#BFD8D9" transform="translate(65,327)"/>
<path d="M0 0 C4.19960819 3.18499697 7.20161015 7.43686169 8.859375 12.41015625 C8.859375 15.38015625 8.859375 18.35015625 8.859375 21.41015625 C-4.340625 21.41015625 -17.540625 21.41015625 -31.140625 21.41015625 C-31.140625 9.69904514 -31.140625 9.69904514 -27.140625 4.41015625 C-19.3769524 -2.90805972 -9.7160709 -5.42156756 0 0 Z " fill="#FCCB55" transform="translate(271.140625,152.58984375)"/>
<path d="M0 0 C13.2 0 26.4 0 40 0 C40 7.59891418 39.67121979 12.85604779 34.57421875 18.609375 C29.25456531 23.28297233 24.4752871 24.47709017 17.5625 24.3125 C12.06490692 23.64206182 7.81693443 21.21518975 4.125 17.125 C-0.02581816 11.02085564 0 7.6547186 0 0 Z " fill="#FCCB55" transform="translate(240,222)"/>
<path d="M0 0 C0.65077296 2.04009755 1.29539824 4.08215669 1.9375 6.125 C2.47697266 7.83042969 2.47697266 7.83042969 3.02734375 9.5703125 C4.83356453 15.93923557 5.13059288 21.80665587 5.0625 28.375 C5.05798828 29.20644531 5.05347656 30.03789062 5.04882812 30.89453125 C5.03713164 32.92971897 5.01919935 34.96486923 5 37 C1.25390877 35.36387901 -1.63725321 32.98967949 -4.8125 30.4375 C-13.54611825 23.55925569 -23.00612463 17.86724617 -33 13 C-25.83265483 4.86735582 -10.62759298 -0.40754781 0 0 Z " fill="#E06051" transform="translate(393,190)"/>
<path d="M0 0 C13.2 0 26.4 0 40 0 C40 5.28 40 10.56 40 16 C26.8 16 13.6 16 0 16 C0 10.72 0 5.44 0 0 Z " fill="#FECD55" transform="translate(240,190)"/>
<path d="M0 0 C4.67163405 1.61814202 7.81479554 5.35255153 11.17749023 8.83837891 C11.94383789 9.57765625 12.71018555 10.31693359 13.49975586 11.07861328 C16.89578511 14.5167545 19.59974272 17.25484827 20.33764648 22.15087891 C20.23999023 25.77587891 20.23999023 25.77587891 18.73999023 28.71337891 C15.44924028 31.42824762 13.49526008 31.84924563 9.23999023 31.77587891 C4.2893532 28.95580851 0.45627836 25.29687446 -3.51000977 21.27587891 C-4.0862207 20.70740234 -4.66243164 20.13892578 -5.25610352 19.55322266 C-5.80911133 18.99763672 -6.36211914 18.44205078 -6.93188477 17.86962891 C-7.67583496 17.12229492 -7.67583496 17.12229492 -8.43481445 16.35986328 C-11.01438121 13.27654915 -11.77004453 11.3378256 -11.69750977 7.27587891 C-10.76000977 3.77587891 -10.76000977 3.77587891 -8.69750977 1.27587891 C-5.51310785 -0.35019867 -3.51718553 -0.53009154 0 0 Z " fill="#4B231C" transform="translate(84.760009765625,63.22412109375)"/>
<path d="M0 0 C2.5 2.125 2.5 2.125 4 5 C4.26904152 9.75306684 2.99373203 12.36486664 0 15.875 C-1.31716714 17.26549397 -2.65194012 18.63943492 -4 20 C-4.76699219 20.804375 -5.53398438 21.60875 -6.32421875 22.4375 C-13.24827502 29.57900597 -13.24827502 29.57900597 -17 31 C-21.14469235 30.92598764 -23.27768325 30.59591132 -26.5 27.9375 C-28.12266912 24.75977297 -28.32327535 22.752858 -27.79785156 19.23999023 C-26.12330388 14.53865151 -22.18953926 11.40279945 -18.625 8.0625 C-17.45324219 6.91297852 -17.45324219 6.91297852 -16.2578125 5.74023438 C-10.76811057 0.43383584 -7.92428656 -1.946316 0 0 Z " fill="#4B231C" transform="translate(67,64)"/>
<path d="M0 0 C2.5 2.125 2.5 2.125 4 5 C4.26904152 9.75306684 2.99373203 12.36486664 0 15.875 C-1.31716714 17.26549397 -2.65194012 18.63943492 -4 20 C-4.76699219 20.804375 -5.53398438 21.60875 -6.32421875 22.4375 C-13.24827502 29.57900597 -13.24827502 29.57900597 -17 31 C-21.14469235 30.92598764 -23.27768325 30.59591132 -26.5 27.9375 C-28.12266912 24.75977297 -28.32327535 22.752858 -27.79785156 19.23999023 C-26.12330388 14.53865151 -22.18953926 11.40279945 -18.625 8.0625 C-17.45324219 6.91297852 -17.45324219 6.91297852 -16.2578125 5.74023438 C-10.76811057 0.43383584 -7.92428656 -1.946316 0 0 Z " fill="#4B231C" transform="translate(101,30)"/>
<path d="M0 0 C4.67163405 1.61814202 7.81479554 5.35255153 11.17749023 8.83837891 C11.94383789 9.57765625 12.71018555 10.31693359 13.49975586 11.07861328 C16.89578511 14.5167545 19.59974272 17.25484827 20.33764648 22.15087891 C20.23999023 25.77587891 20.23999023 25.77587891 18.73999023 28.71337891 C15.44924028 31.42824762 13.49526008 31.84924563 9.23999023 31.77587891 C4.2893532 28.95580851 0.45627836 25.29687446 -3.51000977 21.27587891 C-4.0862207 20.70740234 -4.66243164 20.13892578 -5.25610352 19.55322266 C-5.80911133 18.99763672 -6.36211914 18.44205078 -6.93188477 17.86962891 C-7.67583496 17.12229492 -7.67583496 17.12229492 -8.43481445 16.35986328 C-11.01438121 13.27654915 -11.77004453 11.3378256 -11.69750977 7.27587891 C-10.76000977 3.77587891 -10.76000977 3.77587891 -8.69750977 1.27587891 C-5.51310785 -0.35019867 -3.51718553 -0.53009154 0 0 Z " fill="#4B231C" transform="translate(50.760009765625,29.22412109375)"/>
<path d="M0 0 C10.25104452 -0.17249354 19.03518141 4.5175907 28 9 C28 9.66 28 10.32 28 11 C26.40285156 11.80050781 26.40285156 11.80050781 24.7734375 12.6171875 C16.49158134 16.84391557 8.72037132 21.28749047 1.29248047 26.89990234 C-2.82497144 30 -2.82497144 30 -5 30 C-5.74543499 20.41287771 -4.36351688 8.72703376 0 0 Z " fill="#E06051" transform="translate(127,190)"/>
<path d="M0 0 C2.65462792 3.66963271 3.42513714 6.4354429 3.125 10.9375 C1.8997927 14.54505484 0.79435191 16.37970674 -2.125 18.8125 C-5.68210366 20.26767877 -8.05692158 20.40638682 -11.875 19.9375 C-15.87755838 17.82294085 -18.23745253 16.16268146 -19.875 11.9375 C-20.21048975 7.12881356 -19.51601736 3.76909009 -16.5625 -0.0625 C-11.13413426 -4.10221404 -5.64049002 -4.04643849 0 0 Z " fill="#4B231C" transform="translate(358.875,38.0625)"/>
<path d="M0 0 C2.30289815 1.63037037 4.0159766 3.01253871 5.9375 5 C6.42041504 5.49113281 6.90333008 5.98226563 7.40087891 6.48828125 C10.1935194 9.53802198 11.75842152 11.83060505 11.875 16 C11.63997854 18.55703349 11.24747832 19.69487048 9.625 21.6953125 C7.14459156 23.68679428 5.14351185 23.87425953 2 24 C-4.58750084 20.63114778 -10.8432574 15.30497885 -13.3125 8.25 C-12.93053027 4.27751478 -11.83391433 2.75294535 -9 0 C-5.77206135 -1.61396932 -3.45060371 -0.80598043 0 0 Z " fill="#4D251E" transform="translate(111,400)"/>
<path d="M0 0 C1.703125 1.62890625 1.703125 1.62890625 3.25 3.5625 C3.77078125 4.20316406 4.2915625 4.84382813 4.828125 5.50390625 C5.21484375 5.99761719 5.6015625 6.49132812 6 7 C4.35 7.99 2.7 8.98 1 10 C-1.1695061 8.52485505 -3.33563707 7.0451561 -5.5 5.5625 C-6.12003906 5.14162109 -6.74007812 4.72074219 -7.37890625 4.28710938 C-8.93710398 3.21691863 -10.47078051 2.11120482 -12 1 C-12 0.67 -12 0.34 -12 0 C-3.35135135 -1.2972973 -3.35135135 -1.2972973 0 0 Z " fill="#BDD2D2" transform="translate(98,393)"/>
<path d="M0 0 C2.97 0 5.94 0 9 0 C10.00508801 1.78881736 11.00392736 3.58114696 12 5.375 C12.8353125 6.87160156 12.8353125 6.87160156 13.6875 8.3984375 C15 11 15 11 15 13 C11.12207603 11.38419835 8.28921212 8.75734641 5.25 5.9375 C4.74339844 5.47794922 4.23679687 5.01839844 3.71484375 4.54492188 C2.45382769 3.38757425 1.22393107 2.19649813 0 1 C0 0.67 0 0.34 0 0 Z " fill="#BED6D6" transform="translate(68,377)"/>
<path d="M0 0 C2.64 0 5.28 0 8 0 C7.39009109 3.55780196 6.4216319 6.6828589 5 10 C2.35534962 6.8745041 1.15585285 3.91211733 0 0 Z " fill="#F4F1F1" transform="translate(188,407)"/>
<path d="M0 0 C2.31 0 4.62 0 7 0 C6.01 2.97 5.02 5.94 4 9 C1.3144406 6.3144406 0.93950026 3.62378672 0 0 Z " fill="#F7F5F5" transform="translate(308,408)"/>
</svg>
