<?xml version="1.0" encoding="UTF-8"?>
<svg version="1.1" xmlns="http://www.w3.org/2000/svg" width="512" height="512">
<path d="M0 0 C3.43370673 1.9524999 6.35454877 4.06060974 9 7 C11.85882221 5.7904983 13.53531674 4.51123254 15.875 2.375 C19 0 19 0 22.125 -0.4375 C24.91876249 -0.01236223 26.6730604 0.42100527 29 2 C31.53604144 5.80406216 31.60198813 7.48508904 31 12 C29.63867187 13.89746094 29.63867187 13.89746094 27.96875 15.734375 C27.41638672 16.35022461 26.86402344 16.96607422 26.29492188 17.60058594 C25.86759766 18.06239258 25.44027344 18.52419922 25 19 C26.16233154 18.98428955 27.32466309 18.9685791 28.5222168 18.95239258 C72.25630151 18.41368473 72.25630151 18.41368473 88 22 C88.90588867 22.19867676 89.81177734 22.39735352 90.74511719 22.60205078 C140.59055559 33.79338281 180.35343041 63.05198987 210 104 C222.68466362 96.69736381 235.36327718 89.38538702 248 82 C259.51944919 75.26907618 271.07335023 68.59882261 282.63427734 61.93945312 C286.1489325 59.91417962 289.66255469 57.88712521 293.17578125 55.859375 C293.76593018 55.51877548 294.3560791 55.17817596 294.96411133 54.82725525 C297.79692756 53.19230093 300.62969 51.55725345 303.46240234 49.92211914 C305.44607678 48.77747391 307.43055261 47.63421579 309.41601562 46.49267578 C311.0083991 45.57281254 312.59661815 44.64564093 314.17773438 43.70654297 C318.04413306 41.42415317 320.45685759 40.20988828 325 41 C327.69990662 42.79993774 329.5418865 44.083773 331 47 C331.45133096 52.01063031 330.31397203 55.12543589 328.08984375 59.58984375 C327.7753981 60.22970718 327.46095245 60.86957062 327.13697815 61.52882385 C326.08134131 63.67061057 325.00930401 65.80376387 323.9375 67.9375 C323.17716585 69.47335518 322.41808453 71.00983112 321.66015625 72.546875 C320.00651425 75.89706279 318.34674727 79.2441227 316.68310547 82.58935547 C313.88274503 88.22728744 311.11239852 93.87968858 308.34765625 99.53515625 C307.86877457 100.51468765 307.38989288 101.49421906 306.89649963 102.50343323 C305.92080627 104.49965024 304.94524636 106.49593248 303.96981812 108.49227905 C301.53109881 113.4826837 299.08977791 118.47181474 296.6484375 123.4609375 C295.9355381 124.91825539 295.9355381 124.91825539 295.20823669 126.40501404 C292.49257731 131.95514126 289.77117615 137.50239817 287.04437256 143.04705811 C285.44010963 146.31166726 283.8404383 149.57851062 282.24194336 152.84594727 C281.504946 154.34974407 280.76589335 155.85253556 280.0246582 157.35424805 C279.01371183 159.40287311 278.009932 161.45485869 277.0078125 163.5078125 C276.44723145 164.64879395 275.88665039 165.78977539 275.30908203 166.96533203 C273.06453679 171.98045024 273.06453679 171.98045024 273.78515625 177.2097168 C274.20667969 177.94875244 274.62820313 178.68778809 275.0625 179.44921875 C275.5263208 180.28751221 275.9901416 181.12580566 276.46801758 181.98950195 C276.97357178 182.87984131 277.47912598 183.77018066 278 184.6875 C289.19339088 205.30615603 296.46069387 227.58561883 299 251 C299.16435547 252.37285156 299.16435547 252.37285156 299.33203125 253.7734375 C304.30554544 302.18230895 289.63563329 350.97608939 259.45703125 388.984375 C255.79244628 393.48208501 251.99254355 397.79129963 248 402 C247.53787109 402.49467773 247.07574219 402.98935547 246.59960938 403.49902344 C234.67231253 416.20010953 221.10668561 426.34683231 206 435 C204.87722656 435.65484375 203.75445312 436.3096875 202.59765625 436.984375 C160.43925856 460.94051725 108.44072467 465.17986952 62.05078125 452.5234375 C56.48638943 450.90474527 51.04848138 448.9749125 45.625 446.9375 C44.75093506 446.60919189 43.87687012 446.28088379 42.97631836 445.94262695 C37.29419722 443.72005686 32.36738946 441.36738946 28 437 C27.76953125 435.125 27.76953125 435.125 27.8125 433 C27.82216797 431.948125 27.82216797 431.948125 27.83203125 430.875 C28 429 28 429 29 427 C28.443125 426.731875 27.88625 426.46375 27.3125 426.1875 C24.80287477 424.89877353 22.40665764 423.47073522 20 422 C19.71125 422.639375 19.4225 423.27875 19.125 423.9375 C18 426 18 426 16 427 C11.30243339 427.86991974 9.14246246 427.70132839 5.015625 425.16796875 C1.93553136 422.85789852 -1.04623861 420.46906282 -4 418 C-4.68191406 417.45859375 -5.36382812 416.9171875 -6.06640625 416.359375 C-9.82291667 413.35416667 -9.82291667 413.35416667 -11 411 C-11.25785684 406.44452917 -10.99851462 403.1219364 -9 399 C-11.25167846 397.28184562 -11.25167846 397.28184562 -14 396 C-15.99983534 396.79117904 -15.99983534 396.79117904 -18 398 C-20.875 398.4375 -20.875 398.4375 -24 398 C-28.5246433 394.66637542 -31.7736414 391.0215249 -35.0625 386.5 C-39.69573129 380.19060763 -44.18683376 375.23737522 -51.0625 371.25 C-60.71986552 365.4914253 -69.43034474 358.74770573 -77.69140625 351.12109375 C-79.81495436 349.17001655 -81.98675681 347.30031718 -84.1875 345.4375 C-88.19545111 341.9245548 -91.62473969 338.11862122 -95 334 C-95.8353125 332.99066406 -96.670625 331.98132813 -97.53125 330.94140625 C-104.47330525 322.41655251 -110.45278672 313.48523922 -116 304 C-116.35690918 303.39607422 -116.71381836 302.79214844 -117.08154297 302.16992188 C-141.00088973 261.22952752 -146.90935196 209.40623505 -135.69091797 163.62792969 C-128.64011104 136.80994885 -117.09533195 109.41693003 -97.9140625 88.921875 C-96.7022632 86.91400817 -96.7022632 86.91400817 -97.75512695 84.25878906 C-98.99212145 81.02062422 -100.41089935 78.01505996 -102.00390625 74.9375 C-102.57947266 73.81085938 -103.15503906 72.68421875 -103.74804688 71.5234375 C-104.95850211 69.17288719 -106.17205005 66.82392697 -107.38867188 64.4765625 C-107.96294922 63.34992188 -108.53722656 62.22328125 -109.12890625 61.0625 C-109.91890015 59.53302734 -109.91890015 59.53302734 -110.72485352 57.97265625 C-112.64860744 53.48794864 -113.50797915 50.39025873 -111.8125 45.75 C-109.21088435 41.80272109 -109.21088435 41.80272109 -106 41 C-100.96077089 41.42222501 -97.42213472 42.53221307 -93.05859375 45.0546875 C-91.98029297 45.66957031 -90.90199219 46.28445312 -89.79101562 46.91796875 C-88.68435547 47.56378906 -87.57769531 48.20960937 -86.4375 48.875 C-84.22846107 50.14426787 -82.01884405 51.41253024 -79.80859375 52.6796875 C-78.83720459 53.24413574 -77.86581543 53.80858398 -76.86499023 54.39013672 C-73.95359814 56.02607361 -70.99830114 57.53041327 -68 59 C-67.12601562 58.32195312 -66.25203125 57.64390625 -65.3515625 56.9453125 C-51.35613746 46.27486351 -36.62212621 38.33062619 -20.3046875 31.7890625 C-10.90436842 28.09822495 -10.90436842 28.09822495 -4 21 C-4.74056641 20.36384766 -4.74056641 20.36384766 -5.49609375 19.71484375 C-8.80459296 16.68593603 -10.7718399 14.73518253 -12.125 10.375 C-11.98452964 6.58230016 -11.35319979 4.94149974 -9 2 C-5.46569344 -0.35620437 -4.16428713 -0.48991613 0 0 Z " fill="#FECD55" transform="translate(168,52)"/>
<path d="M0 0 C3.43370673 1.9524999 6.35454877 4.06060974 9 7 C11.85882221 5.7904983 13.53531674 4.51123254 15.875 2.375 C19 0 19 0 22.125 -0.4375 C24.91876249 -0.01236223 26.6730604 0.42100527 29 2 C31.53604144 5.80406216 31.60198813 7.48508904 31 12 C29.63867187 13.89746094 29.63867187 13.89746094 27.96875 15.734375 C27.41638672 16.35022461 26.86402344 16.96607422 26.29492188 17.60058594 C25.86759766 18.06239258 25.44027344 18.52419922 25 19 C26.16233154 18.98428955 27.32466309 18.9685791 28.5222168 18.95239258 C72.25630151 18.41368473 72.25630151 18.41368473 88 22 C88.90588867 22.19867676 89.81177734 22.39735352 90.74511719 22.60205078 C140.59055559 33.79338281 180.35343041 63.05198987 210 104 C222.68466362 96.69736381 235.36327718 89.38538702 248 82 C259.51944919 75.26907618 271.07335023 68.59882261 282.63427734 61.93945312 C286.1489325 59.91417962 289.66255469 57.88712521 293.17578125 55.859375 C293.76593018 55.51877548 294.3560791 55.17817596 294.96411133 54.82725525 C297.79692756 53.19230093 300.62969 51.55725345 303.46240234 49.92211914 C305.44607678 48.77747391 307.43055261 47.63421579 309.41601562 46.49267578 C311.0083991 45.57281254 312.59661815 44.64564093 314.17773438 43.70654297 C318.04413306 41.42415317 320.45685759 40.20988828 325 41 C327.69990662 42.79993774 329.5418865 44.083773 331 47 C331.45133096 52.01063031 330.31397203 55.12543589 328.08984375 59.58984375 C327.7753981 60.22970718 327.46095245 60.86957062 327.13697815 61.52882385 C326.08134131 63.67061057 325.00930401 65.80376387 323.9375 67.9375 C323.17716585 69.47335518 322.41808453 71.00983112 321.66015625 72.546875 C320.00651425 75.89706279 318.34674727 79.2441227 316.68310547 82.58935547 C313.88274503 88.22728744 311.11239852 93.87968858 308.34765625 99.53515625 C307.86877457 100.51468765 307.38989288 101.49421906 306.89649963 102.50343323 C305.92080627 104.49965024 304.94524636 106.49593248 303.96981812 108.49227905 C301.53109881 113.4826837 299.08977791 118.47181474 296.6484375 123.4609375 C295.9355381 124.91825539 295.9355381 124.91825539 295.20823669 126.40501404 C292.49257731 131.95514126 289.77117615 137.50239817 287.04437256 143.04705811 C285.44010963 146.31166726 283.8404383 149.57851062 282.24194336 152.84594727 C281.504946 154.34974407 280.76589335 155.85253556 280.0246582 157.35424805 C279.01371183 159.40287311 278.009932 161.45485869 277.0078125 163.5078125 C276.44723145 164.64879395 275.88665039 165.78977539 275.30908203 166.96533203 C273.06453679 171.98045024 273.06453679 171.98045024 273.78515625 177.2097168 C274.20667969 177.94875244 274.62820313 178.68778809 275.0625 179.44921875 C275.5263208 180.28751221 275.9901416 181.12580566 276.46801758 181.98950195 C276.97357178 182.87984131 277.47912598 183.77018066 278 184.6875 C289.19339088 205.30615603 296.46069387 227.58561883 299 251 C299.16435547 252.37285156 299.16435547 252.37285156 299.33203125 253.7734375 C304.30554544 302.18230895 289.63563329 350.97608939 259.45703125 388.984375 C255.79244628 393.48208501 251.99254355 397.79129963 248 402 C247.53787109 402.49467773 247.07574219 402.98935547 246.59960938 403.49902344 C234.67231253 416.20010953 221.10668561 426.34683231 206 435 C204.87722656 435.65484375 203.75445312 436.3096875 202.59765625 436.984375 C160.43925856 460.94051725 108.44072467 465.17986952 62.05078125 452.5234375 C56.48638943 450.90474527 51.04848138 448.9749125 45.625 446.9375 C44.75093506 446.60919189 43.87687012 446.28088379 42.97631836 445.94262695 C37.29419722 443.72005686 32.36738946 441.36738946 28 437 C27.59515064 433.91302361 27.36140251 431.96128395 28 429 C30.5625 425.9375 30.5625 425.9375 34 424 C40.04664071 424.27278078 45.07578408 426.48169683 50.5625 428.8125 C65.19204429 434.80662328 79.38318046 437.9481183 95 440 C96.30324219 440.185625 97.60648438 440.37125 98.94921875 440.5625 C139.97742543 445.55586329 183.8591508 431.27725671 216.2421875 406.234375 C223.23372905 400.56983992 229.68287308 394.39762399 236.0625 388.0625 C236.63540771 387.4943457 237.20831543 386.92619141 237.79858398 386.34082031 C240.76271784 383.44605284 240.76271784 383.44605284 243 380 C242.10861328 379.99613281 242.10861328 379.99613281 241.19921875 379.9921875 C231.67504699 379.5478249 224.2400156 375.71383192 217.625 368.875 C210.70572309 360.31844563 207.73561834 350.99954823 208.39453125 340.0390625 C209.52417808 330.17300653 215.03769672 321.67825619 222.7265625 315.55078125 C231.57023591 309.51824114 239.32178325 308.16947203 250 309 C259.9311517 311.01045266 267.01832228 315.84432408 274 323 C275.21387702 318.42177347 276.36861818 313.8338157 277.46533203 309.22607422 C277.93701043 307.26225522 278.4334179 305.30441114 278.93359375 303.34765625 C281.15491344 293.21886361 281.29192182 283.13912942 281.3125 272.8125 C281.31608521 272.08774475 281.31967041 271.3629895 281.32336426 270.61627197 C281.44252049 225.78183958 263.18746987 186.50543631 233 154 C232.13375 153.03513672 232.13375 153.03513672 231.25 152.05078125 C209.87866834 129.29603749 179.08299188 114.79930065 149 108 C148.32130859 107.83773926 147.64261719 107.67547852 146.94335938 107.50830078 C121.91337338 101.73901999 93.62270753 103.4505698 69 110 C68.17306641 110.21930176 67.34613281 110.43860352 66.49414062 110.66455078 C41.28925394 117.6455723 18.12235652 131.27769399 -1 149 C-1.85803223 149.79229004 -1.85803223 149.79229004 -2.73339844 150.60058594 C-31.61517526 177.59157541 -52.15062909 217.36795738 -54.10786438 257.19488525 C-54.16274078 259.41289165 -54.19065993 261.6290076 -54.203125 263.84765625 C-54.20882507 264.6626207 -54.21452515 265.47758514 -54.22039795 266.31724548 C-54.22977752 268.03236625 -54.2363536 269.74750446 -54.24023438 271.46264648 C-54.24988572 274.0320746 -54.28095442 276.60068243 -54.3125 279.16992188 C-54.40056019 292.98422836 -52.51741418 305.58014638 -48.55078125 318.86328125 C-48 321 -48 321 -48 324 C-47.34 324 -46.68 324 -46 324 C-45.7525 323.4121875 -45.505 322.824375 -45.25 322.21875 C-41.76756443 316.03742686 -34.23402391 311.98712774 -27.7265625 309.66015625 C-17.20133553 307.11178468 -6.80628281 309.09249287 2.50390625 314.4375 C10.21925012 319.86826658 15.54314211 327.91077926 18 337 C19.15683319 348.23204317 17.41974067 357.59309441 10.8125 366.8125 C3.44625305 375.51523901 -5.20913838 378.39054555 -16 381 C-15.33613281 381.75023437 -14.67226562 382.50046875 -13.98828125 383.2734375 C-12 386 -12 386 -12.1875 389.625 C-13.66556565 395.76465731 -13.66556565 395.76465731 -15.6875 397.1875 C-18.75998606 398.26702213 -20.75453592 398.45436497 -24 398 C-28.5246433 394.66637542 -31.7736414 391.0215249 -35.0625 386.5 C-39.69573129 380.19060763 -44.18683376 375.23737522 -51.0625 371.25 C-60.71986552 365.4914253 -69.43034474 358.74770573 -77.69140625 351.12109375 C-79.81495436 349.17001655 -81.98675681 347.30031718 -84.1875 345.4375 C-88.19545111 341.9245548 -91.62473969 338.11862122 -95 334 C-95.8353125 332.99066406 -96.670625 331.98132813 -97.53125 330.94140625 C-104.47330525 322.41655251 -110.45278672 313.48523922 -116 304 C-116.35690918 303.39607422 -116.71381836 302.79214844 -117.08154297 302.16992188 C-141.00088973 261.22952752 -146.90935196 209.40623505 -135.69091797 163.62792969 C-128.64011104 136.80994885 -117.09533195 109.41693003 -97.9140625 88.921875 C-96.7022632 86.91400817 -96.7022632 86.91400817 -97.75512695 84.25878906 C-98.99212145 81.02062422 -100.41089935 78.01505996 -102.00390625 74.9375 C-102.57947266 73.81085938 -103.15503906 72.68421875 -103.74804688 71.5234375 C-104.95850211 69.17288719 -106.17205005 66.82392697 -107.38867188 64.4765625 C-107.96294922 63.34992188 -108.53722656 62.22328125 -109.12890625 61.0625 C-109.91890015 59.53302734 -109.91890015 59.53302734 -110.72485352 57.97265625 C-112.64860744 53.48794864 -113.50797915 50.39025873 -111.8125 45.75 C-109.21088435 41.80272109 -109.21088435 41.80272109 -106 41 C-100.96077089 41.42222501 -97.42213472 42.53221307 -93.05859375 45.0546875 C-91.98029297 45.66957031 -90.90199219 46.28445312 -89.79101562 46.91796875 C-88.68435547 47.56378906 -87.57769531 48.20960937 -86.4375 48.875 C-84.22846107 50.14426787 -82.01884405 51.41253024 -79.80859375 52.6796875 C-78.83720459 53.24413574 -77.86581543 53.80858398 -76.86499023 54.39013672 C-73.95359814 56.02607361 -70.99830114 57.53041327 -68 59 C-67.12601562 58.32195312 -66.25203125 57.64390625 -65.3515625 56.9453125 C-51.35613746 46.27486351 -36.62212621 38.33062619 -20.3046875 31.7890625 C-10.90436842 28.09822495 -10.90436842 28.09822495 -4 21 C-4.74056641 20.36384766 -4.74056641 20.36384766 -5.49609375 19.71484375 C-8.80459296 16.68593603 -10.7718399 14.73518253 -12.125 10.375 C-11.98452964 6.58230016 -11.35319979 4.94149974 -9 2 C-5.46569344 -0.35620437 -4.16428713 -0.48991613 0 0 Z " fill="#4D251D" transform="translate(168,52)"/>
<path d="M0 0 C3.43370673 1.9524999 6.35454877 4.06060974 9 7 C11.85882221 5.7904983 13.53531674 4.51123254 15.875 2.375 C19 0 19 0 22.125 -0.4375 C24.91876249 -0.01236223 26.6730604 0.42100527 29 2 C31.53604144 5.80406216 31.60198813 7.48508904 31 12 C29.63867187 13.89746094 29.63867187 13.89746094 27.96875 15.734375 C27.41638672 16.35022461 26.86402344 16.96607422 26.29492188 17.60058594 C25.65393555 18.2932959 25.65393555 18.2932959 25 19 C26.16233154 18.98428955 27.32466309 18.9685791 28.5222168 18.95239258 C72.25630151 18.41368473 72.25630151 18.41368473 88 22 C88.90588867 22.19867676 89.81177734 22.39735352 90.74511719 22.60205078 C136.33086603 32.83699439 176.16214049 58.78437961 204.3125 96.0625 C204.79928223 96.69389893 205.28606445 97.32529785 205.78759766 97.97583008 C209.07089212 102.4569526 209.07089212 102.4569526 208.72338867 105.11889648 C208 107 208 107 206.3125 108.3125 C200.83212655 109.94180021 195.98074512 107.21912203 191.125 104.8125 C147.61201927 83.8758351 96.86046955 82.1834829 51.39453125 97.890625 C42.4259405 101.13001924 33.82963767 104.70509667 25.703125 109.73779297 C24.03125 110.7265625 24.03125 110.7265625 21 112 C17.12940969 110.80299388 13.73282068 108.80762636 10.23046875 106.796875 C9.10688965 106.15355225 7.98331055 105.51022949 6.82568359 104.84741211 C5.61288279 104.14840128 4.40015681 103.44926061 3.1875 102.75 C1.92540022 102.0252852 0.66319169 101.30075976 -0.59912109 100.57641602 C-9.42825449 95.50458903 -18.23120272 90.38794009 -27.01831055 85.24365234 C-32.35502397 82.12026684 -37.7011812 79.0144897 -43.0625 75.93359375 C-43.94915848 75.42375191 -43.94915848 75.42375191 -44.85372925 74.90361023 C-47.71754591 73.25721416 -50.58262458 71.61312099 -53.44970703 69.97241211 C-58.4094171 67.12315917 -63.30296202 64.26679804 -68 61 C-66.58852093 56.7655628 -63.50065698 55.26272521 -59.9375 52.875 C-58.85819214 52.14639771 -58.85819214 52.14639771 -57.75708008 51.40307617 C-45.83549496 43.46271096 -33.66085661 37.16913644 -20.375 31.82421875 C-10.93712041 28.11751069 -10.93712041 28.11751069 -4 21 C-4.49371094 20.57589844 -4.98742187 20.15179688 -5.49609375 19.71484375 C-8.80459296 16.68593603 -10.7718399 14.73518253 -12.125 10.375 C-11.98452964 6.58230016 -11.35319979 4.94149974 -9 2 C-5.46569344 -0.35620437 -4.16428713 -0.48991613 0 0 Z " fill="#C0DADB" transform="translate(168,52)"/>
<path d="M0 0 C3 1 3 1 4.19546509 2.82089233 C4.58165009 3.61911407 4.96783508 4.41733582 5.36572266 5.23974609 C5.81171814 6.14894302 6.25771362 7.05813995 6.71722412 7.99488831 C7.19468079 8.99430954 7.67213745 9.99373077 8.1640625 11.0234375 C8.92181976 12.57882484 8.92181976 12.57882484 9.69488525 14.16563416 C11.34781404 17.56421045 12.98641875 20.96948624 14.625 24.375 C15.75444226 26.70381984 16.88481702 29.03218766 18.01611328 31.36010742 C20.2838467 36.03055114 22.54596039 40.70364543 24.80273438 45.37939453 C27.63440475 51.24615988 30.47764352 57.10719855 33.328125 62.96484375 C37.80134701 72.15834039 37.80134701 72.15834039 39.95947266 76.61279297 C40.28365173 77.28186172 40.60783081 77.95093048 40.9418335 78.64027405 C41.79340896 80.39845638 42.64452884 82.15685935 43.49560547 83.9152832 C44.53395789 86.04439434 45.60370451 88.15838027 46.69848633 90.2590332 C48.29293151 93.61690904 48.23345011 94.52620172 47 98 C45.6478623 101.08520185 44.17702147 104.10417815 42.6875 107.125 C39.38474522 113.97211136 36.27299478 120.73070537 34 128 C33.66484375 129.05960938 33.3296875 130.11921875 32.984375 131.2109375 C28.64725484 145.61406041 25.88879637 160.42285279 25.796875 175.48828125 C25.78628555 176.65348297 25.78628555 176.65348297 25.77548218 177.84222412 C25.47940002 201.59047086 25.47940002 201.59047086 29 225 C29.18804199 225.81001465 29.37608398 226.6200293 29.56982422 227.45458984 C34.58973591 248.36889179 42.66050365 270.86670194 56 288 C55.67 288.66 55.34 289.32 55 290 C42.26925524 282.26138739 30.29735446 274.26591764 19.30859375 264.12109375 C17.18504564 262.17001655 15.01324319 260.30031718 12.8125 258.4375 C8.80454889 254.9245548 5.37526031 251.11862122 2 247 C1.1646875 245.99066406 0.329375 244.98132813 -0.53125 243.94140625 C-7.47330525 235.41655251 -13.45278672 226.48523922 -19 217 C-19.35690918 216.39607422 -19.71381836 215.79214844 -20.08154297 215.16992188 C-44.00088973 174.22952752 -49.90935196 122.40623505 -38.69091797 76.62792969 C-31.27282415 48.41296083 -18.67089099 22.48396028 0 0 Z " fill="#C0DADB" transform="translate(71,139)"/>
<path d="M0 0 C4.1495578 0.89500266 6.01052671 2.88498614 9.05859375 5.7421875 C16.20796817 12.27501036 24.41894425 16.66839693 34.25 17 C37.23514654 16.76308361 39.69291645 16.38605011 42.5625 15.6875 C47.43767405 14.52996301 52.20446969 13.83913463 57.1875 14.6875 C59.875 16.6875 59.875 16.6875 61.1875 19.6875 C61.46271423 23.51074626 61.11372482 26.57603021 58.625 29.5625 C55.21696683 31.13543839 51.85709542 31.89242099 48.1875 32.6875 C48.22875 33.88375 48.27 35.08 48.3125 36.3125 C48.16403485 60.28962115 39.27549413 90.58725116 22.875 108.5625 C14.29123683 116.3573834 5.98536927 117.68169377 -5.30078125 117.1640625 C-10.99965173 116.69669171 -15.26135452 115.18505962 -19.8125 111.6875 C-20.50214844 111.17574219 -21.19179687 110.66398437 -21.90234375 110.13671875 C-39.77401629 94.66623062 -48.01685172 58.3587727 -50.78125 35.875 C-52.13207173 31.69973285 -54.05753116 30.77844518 -57.8125 28.6875 C-59.93866932 26.49045837 -60.69923359 25.23967377 -61.3125 22.25 C-60.55424742 18.36395551 -58.97935254 16.99666331 -55.8125 14.6875 C-52.49717574 14.10321513 -49.30019774 14.26478412 -46.0390625 15.19140625 C-36.42928887 17.33253125 -25.45403756 16.38488096 -16.8125 11.6875 C-12.61816529 8.85845734 -8.86757533 5.64442879 -5.125 2.25 C-2.8125 0.6875 -2.8125 0.6875 0 0 Z " fill="#4E251D" transform="translate(276.8125,359.3125)"/>
<path d="M0 0 C3.07591238 1.21188774 5.71669611 2.93868763 8.5234375 4.68359375 C15.77507649 9.03963326 22.95918868 11.11441893 31.2109375 12.87109375 C32.28496345 32.91957815 24.66149835 55.50352736 13.2109375 71.87109375 C8.68313302 76.81302669 5.47256694 78.44828993 -1.1640625 79.30859375 C-6.23550715 78.69652284 -9.19507408 77.57524273 -12.7890625 73.87109375 C-21.29273437 60.4150919 -26.33867841 44.4672274 -30.6640625 29.24609375 C-30.86733154 28.53662598 -31.07060059 27.8271582 -31.2800293 27.09619141 C-32.6531689 22.03775682 -33.30713765 17.09023735 -33.7890625 11.87109375 C-33.07363281 11.78472656 -32.35820312 11.69835937 -31.62109375 11.609375 C-22.10441854 10.26743762 -12.47992241 7.94364975 -4.7265625 1.99609375 C-1.7890625 -0.12890625 -1.7890625 -0.12890625 0 0 Z " fill="#E46252" transform="translate(276.7890625,381.12890625)"/>
<path d="M0 0 C13.52602624 6.76301312 13.52602624 6.76301312 18.97265625 9.98046875 C19.54785507 10.32000076 20.12305389 10.65953278 20.71568298 11.00935364 C21.90369494 11.71213996 23.09052281 12.41693199 24.27612305 13.1237793 C26.0885003 14.2029822 27.9062785 15.27266205 29.72460938 16.34179688 C30.89095457 17.03329858 32.0569826 17.7253356 33.22265625 18.41796875 C34.26172119 19.03438232 35.30078613 19.6507959 36.37133789 20.28588867 C38.57348332 21.72187484 40.26060303 23.0510551 42 25 C41.39414063 25.47308594 40.78828125 25.94617188 40.1640625 26.43359375 C33.88285869 31.39091307 27.8471056 36.5372112 22 42 C21.18660156 42.75925781 20.37320313 43.51851562 19.53515625 44.30078125 C13.98453214 49.65849268 9.1836221 55.35884798 4.57836914 61.5300293 C3.42816561 63.05313469 2.21895015 64.53133437 1 66 C0.34 66 -0.32 66 -1 66 C-3.19247652 61.66512988 -5.37928764 57.32746193 -7.5612793 52.98730469 C-8.30165526 51.51650363 -9.04347553 50.04642856 -9.78686523 48.57714844 C-10.86579021 46.44403446 -11.93919061 44.30821116 -13.01171875 42.171875 C-13.33589279 41.53384949 -13.66006683 40.89582397 -13.99406433 40.23846436 C-16.99014894 34.24770971 -19.4013356 28.23679455 -22 22 C-14.74 14.74 -7.48 7.48 0 0 Z " fill="#FDCC55" transform="translate(130,150)"/>
<path d="M0 0 C6.00036355 4.3335959 9.23584613 9.8598743 11 17 C12.17619085 25.4879752 10.57185424 33.05435567 5.52734375 40.0390625 C0.57534043 45.54128842 -5.43709387 48.36771158 -12.734375 49.37890625 C-21.16167768 49.74789832 -28.54852776 47.56882502 -34.875 41.875 C-40.56882502 35.54852776 -42.74789832 28.16167768 -42.37890625 19.734375 C-41.36771158 12.43709387 -38.54128842 6.42465957 -33.0390625 1.47265625 C-22.92042113 -5.83525141 -10.74987833 -6.18209727 0 0 Z M-23 18 C-24.33660145 21.35592863 -24.33660145 21.35592863 -24 25 C-22.17331062 28.57537156 -22.17331062 28.57537156 -19 31 C-15.5 31.91666667 -15.5 31.91666667 -12 31 C-8.30813458 28.40783917 -7.17116239 26.95850936 -6.375 22.5 C-7.16602932 18.0702358 -8.36474785 16.60789828 -12 14 C-16.97760738 13.06669862 -19.64509796 14.26168058 -23 18 Z " fill="#4C231C" transform="translate(498,455)"/>
<path d="M0 0 C5.62095221 2.42408069 9.52305854 7.07348548 13.8125 11.3125 C14.70904297 12.16779297 15.60558594 13.02308594 16.52929688 13.90429688 C17.37169922 14.73638672 18.21410156 15.56847656 19.08203125 16.42578125 C19.85780518 17.18286377 20.6335791 17.93994629 21.43286133 18.7199707 C23 21 23 21 22.88818359 23.48095703 C21.97816407 26.06193049 20.94979048 28.44016216 19.70703125 30.87890625 C19.24401611 31.79526855 18.78100098 32.71163086 18.30395508 33.65576172 C17.8117749 34.61498535 17.31959473 35.57420898 16.8125 36.5625 C16.31580811 37.54234863 15.81911621 38.52219727 15.30737305 39.53173828 C14.32307705 41.47332361 13.33656092 43.41378529 12.34765625 45.35302734 C10.65129278 48.68490646 8.97975382 52.0284689 7.3125 55.375 C6.54166667 56.91666667 5.77083333 58.45833333 5 60 C1.53004946 56.58581652 -1.75688771 53.07117002 -5 49.4375 C-14.3919112 39.09752978 -24.63431178 30.10957214 -36 22 C-32.35916449 18.93667047 -28.63315834 16.5173037 -24.4921875 14.1796875 C-23.58123825 13.66258713 -23.58123825 13.66258713 -22.65188599 13.13504028 C-20.72856525 12.0442215 -18.80196309 10.95936916 -16.875 9.875 C-14.94156155 8.78235446 -13.00883397 7.68847045 -11.07669067 6.59353638 C-9.32959703 5.60418608 -7.58061837 4.61816672 -5.83154297 3.63232422 C-3.84751719 2.48857561 -1.90547133 1.27031422 0 0 Z " fill="#FCCB55" transform="translate(423,150)"/>
<path d="M0 0 C3.43370673 1.9524999 6.35454877 4.06060974 9 7 C11.85882221 5.7904983 13.53531674 4.51123254 15.875 2.375 C19 0 19 0 22.125 -0.4375 C24.91876249 -0.01236223 26.6730604 0.42100527 29 2 C31.56205842 5.84308764 31.67366765 7.4340304 31 12 C29.32990816 14.26982556 27.53094291 16.21930267 25.53125 18.203125 C23.67569575 19.98709057 23.67569575 19.98709057 24 23 C25.32516398 24.60646993 25.32516398 24.60646993 27 26.1875 C29.38319089 28.85305948 30.47702117 30.5821977 30.625 34.1875 C30 38 30 38 28.5 40.5 C25.68533873 42.18879676 23.39890024 42.73522871 20.10546875 42.60546875 C16.05593705 41.44094665 13.59052115 38.17338841 11 35 C8.14598288 36.30783654 6.55403229 37.41623653 4.1875 39.625 C1 42 1 42 -2.5625 42.625 C-6.97748801 41.82227491 -8.43140902 40.65829624 -11 37 C-11.75 33.6875 -11.75 33.6875 -11 30 C-8.91966932 27.06487998 -6.56366001 24.51788037 -4 22 C-4.40992188 21.54109375 -4.81984375 21.0821875 -5.2421875 20.609375 C-5.78101563 19.99578125 -6.31984375 19.3821875 -6.875 18.75 C-7.40867188 18.14671875 -7.94234375 17.5434375 -8.4921875 16.921875 C-11.07809614 13.62584638 -12.01342847 11.75199457 -11.9375 7.5 C-11 4 -11 4 -8.8125 1.5625 C-5.43388366 -0.31450908 -3.81030177 -0.62209008 0 0 Z " fill="#4C251E" transform="translate(168,52)"/>
<path d="M0 0 C7.17439379 4.6075266 11.26733353 10.98151881 14 19 C14.8258735 24.00606401 15.07756498 28.18969083 12.4375 32.625 C9.14428231 34.48271254 6.78754716 35 3 35 C0.1875 33.6875 0.1875 33.6875 -2 31 C-2.66112836 28.48262662 -3.07564312 25.97986869 -3.484375 23.41015625 C-4.19696753 20.07932604 -5.50305444 18.28292165 -8 16 C-11.96533466 13.74940465 -15.49653782 13.52595135 -20 14 C-24.39847931 16.28382579 -26.98469943 18.46557371 -29 23 C-29.30927399 24.53823118 -29.59961524 26.08034185 -29.875 27.625 C-30.53476201 30.84335125 -30.75804095 31.76495407 -33.1875 34.125 C-36.9007915 35.28024624 -39.26483481 35.03754589 -43 34 C-45.99500381 30.95624032 -46.45562525 28.57950722 -46.5 24.375 C-46.23345045 15.61085088 -43.06347249 9.61782328 -36.75 3.625 C-25.75666038 -5.30708845 -12.64950305 -7.26858237 0 0 Z " fill="#4F271E" transform="translate(382,305)"/>
<path d="M0 0 C7.18532948 5.26685842 11.9013868 12.70971027 13.44140625 21.52734375 C13.64935664 25.55889799 13.30075709 27.51878866 11.125 31 C8.63148747 33.34683532 7.56698263 33.9118027 4.1875 34.4375 C1 34 1 34 -1.75 31.5625 C-4.16073012 28.31995246 -4.91311057 25.09370301 -5.54296875 21.1484375 C-6.04024793 18.81080033 -6.77579888 17.04920622 -8 15 C-12.26169211 12.4171563 -17.16335977 12.30175264 -22 13 C-26.12256137 15.09875852 -28.24096521 16.77214446 -30 21 C-30.30751862 22.49291091 -30.57781978 23.99392036 -30.8125 25.5 C-31.51854212 28.82222919 -31.93002576 29.92030712 -34.25 32.5625 C-37.61385805 34.32088034 -39.26511395 34.77810126 -43 34 C-46.02775748 31.43298823 -47.61417132 29.79158707 -48.44921875 25.9140625 C-48.75503848 19.90312307 -46.89093122 15.18275498 -44 10 C-43.4740625 9.05447266 -43.4740625 9.05447266 -42.9375 8.08984375 C-39.1328003 2.07894666 -33.47267274 -1.30224888 -27.1875 -4.375 C-17.22043636 -6.3293262 -8.82420978 -5.1172928 0 0 Z " fill="#4F271E" transform="translate(206,306)"/>
<path d="M0 0 C5.07052066 2.82760604 8.62788752 6.7035132 10.69140625 12.15234375 C11.76962074 18.15408637 10.91784377 23.1846923 7.89453125 28.46484375 C5.05353947 32.44961145 1.37674207 34.90292087 -3.30859375 36.15234375 C-8.93522487 36.7849803 -13.91746935 36.80860254 -18.703125 33.5234375 C-22.99586313 29.85737647 -25.83150019 26.71712188 -26.890625 21.0234375 C-27.16417005 15.53345206 -26.93474595 11.18803493 -23.74609375 6.58984375 C-17.30103409 -0.49972187 -9.43755739 -3.46522835 0 0 Z " fill="#E36252" transform="translate(420.30859375,378.84765625)"/>
<path d="M0 0 C5.05560785 2.85459226 8.65685405 6.68551525 10.6796875 12.16015625 C11.67972493 17.78331756 11.42670367 22.5902774 8.5546875 27.59765625 C5.43353155 31.92471336 1.73984513 34.47343704 -3.3203125 36.16015625 C-10.20538642 36.89440364 -14.72489066 36.30076841 -20.3203125 32.16015625 C-25.42190237 26.78280477 -26.79926318 21.94214654 -26.63671875 14.66015625 C-25.99093382 9.55765802 -23.58832135 6.33306444 -19.8203125 2.84765625 C-13.64190293 -1.32277021 -7.23745163 -2.61961633 0 0 Z " fill="#E36252" transform="translate(158.3203125,378.83984375)"/>
<path d="M0 0 C3.71452583 3.03226599 3.71452583 3.03226599 5 6 C5.22016403 10.44635609 4.95108561 12.73694128 2.25463867 16.31787109 C-0.06360492 18.78886223 -2.46345258 21.12270161 -4.9375 23.4375 C-5.77474609 24.25154297 -6.61199219 25.06558594 -7.47460938 25.90429688 C-14.70394942 32.87773108 -14.70394942 32.87773108 -19.3125 33.3125 C-23.64317426 32.94549371 -25.12093906 32.21777399 -28 29 C-29.20218476 25.5437188 -29.28187961 23.75720602 -28.00390625 20.32421875 C-25.26097735 15.77405795 -21.73173494 12.37438258 -17.9375 8.6875 C-17.20466797 7.95982422 -16.47183594 7.23214844 -15.71679688 6.48242188 C-10.74315679 1.58185639 -7.44808009 -1.46403101 0 0 Z " fill="#4C231C" transform="translate(438,3)"/>
<path d="M0 0 C3.34238038 2.14255152 3.89167954 3.60282498 4.9375 7.4375 C5.0217083 12.2373733 3.49296339 14.36171329 0.28442383 17.88256836 C-1.80266776 20.03566698 -3.92428033 22.14770091 -6.0625 24.25 C-6.79533203 24.9821875 -7.52816406 25.714375 -8.28320312 26.46875 C-14.72312356 32.85544795 -14.72312356 32.85544795 -19.3125 33.375 C-23 33 -23 33 -25.875 30.75 C-29 26.70588235 -29 26.70588235 -29 24 C-26.86234721 17.3271701 -22.92693638 13.41591769 -17.9375 8.625 C-17.20466797 7.90183594 -16.47183594 7.17867187 -15.71679688 6.43359375 C-10.57863286 1.40394927 -7.57315397 -1.04974411 0 0 Z " fill="#4B231C" transform="translate(402,39)"/>
<path d="M0 0 C3.05170382 1.93779897 5.45013879 4.45441708 8 7 C9.04422489 7.95472955 10.09129193 8.90635641 11.140625 9.85546875 C12.24093692 10.88136265 13.33989583 11.90870961 14.4375 12.9375 C14.97012451 13.41477539 15.50274902 13.89205078 16.05151367 14.38378906 C18.89587646 17.13184992 20.36547929 19.34133796 20.9609375 23.1953125 C21 27 21 27 19.1875 29.9375 C16.33935748 32.62289152 14.1094482 33.65563514 10.1171875 33.59765625 C5.1240779 32.18816221 1.56335039 27.56876582 -2 24 C-3.27230469 22.83404297 -3.27230469 22.83404297 -4.5703125 21.64453125 C-9.11704149 17.39750626 -12.39044865 14.33933409 -13 8 C-12.3063376 4.94788543 -11.43209832 3.4641056 -9.3125 1.1875 C-5.83345609 -0.59903606 -3.87788477 -0.64631413 0 0 Z " fill="#4B231C" transform="translate(386,3)"/>
<path d="M0 0 C3.05160319 1.93773507 5.45228588 4.45228588 8 7 C9.04449351 7.96612272 10.09154138 8.92948851 11.140625 9.890625 C12.24094105 10.92564185 13.33989993 11.96210339 14.4375 13 C14.97012451 13.4856543 15.50274902 13.97130859 16.05151367 14.47167969 C19.78547672 18.10341695 20.88342454 20.81545978 21 26 C19.41161066 29.57387602 18.28365642 30.81089572 15 33 C10.59478434 33.58736209 8.28175696 32.81941878 4.67895508 30.30175781 C1.4827735 27.82363652 -1.37971153 25.03042343 -4.25 22.1875 C-4.87390625 21.59646484 -5.4978125 21.00542969 -6.140625 20.39648438 C-10.12711273 16.45725027 -12.06888537 13.56644615 -13 8 C-12.3063376 4.94788543 -11.43209832 3.4641056 -9.3125 1.1875 C-5.83345609 -0.59903606 -3.87788477 -0.64631413 0 0 Z " fill="#4C231D" transform="translate(422,39)"/>
<path d="M0 0 C1.22912109 0.00386719 2.45824219 0.00773437 3.72460938 0.01171875 C5.00013672 0.03621094 6.27566406 0.06070312 7.58984375 0.0859375 C9.50893555 0.08787109 9.50893555 0.08787109 11.46679688 0.08984375 C22.01731666 0.1895337 22.01731666 0.1895337 25.52734375 2.4609375 C27.82943865 5.68387036 28.00245029 8.58090074 27.52734375 12.4609375 C25.72740601 15.16084412 24.44357075 17.002824 21.52734375 18.4609375 C17.09519314 18.73287386 12.65438484 18.69260176 8.21484375 18.7109375 C6.97798828 18.7315625 5.74113281 18.7521875 4.46679688 18.7734375 C2.67725586 18.78117187 2.67725586 18.78117187 0.8515625 18.7890625 C-0.78679565 18.80308105 -0.78679565 18.80308105 -2.45825195 18.81738281 C-5.86269794 18.4148161 -7.71682782 17.45970396 -10.47265625 15.4609375 C-12.55872551 12.80594026 -12.4714508 11.39343246 -12.41015625 7.9609375 C-10.64298457 1.36349657 -6.42691415 -0.04709715 0 0 Z " fill="#4C241C" transform="translate(62.47265625,450.5390625)"/>
<path d="M0 0 C1.26972656 -0.00644531 2.53945312 -0.01289063 3.84765625 -0.01953125 C5.16636719 -0.00019531 6.48507813 0.01914062 7.84375 0.0390625 C9.82181641 0.01005859 9.82181641 0.01005859 11.83984375 -0.01953125 C13.74443359 -0.00986328 13.74443359 -0.00986328 15.6875 0 C16.84443359 0.00563965 18.00136719 0.0112793 19.19335938 0.01708984 C23.24889584 0.84994567 24.75098122 2.51108906 27.34375 5.6640625 C28.04296875 7.7265625 28.04296875 7.7265625 28.03125 9.6640625 C28.05574219 10.3034375 28.08023438 10.9428125 28.10546875 11.6015625 C26.78507222 15.17679004 24.7084187 17.09411196 21.34375 18.6640625 C16.80889583 19.35021547 12.35805894 19.27089518 7.78125 19.1640625 C5.95303711 19.16792969 5.95303711 19.16792969 4.08789062 19.171875 C-6.02400513 19.06093813 -6.02400513 19.06093813 -10.65625 15.6640625 C-12.23523053 12.50610143 -12.47553171 9.05735614 -11.65625 5.6640625 C-7.99256117 1.17424776 -5.76511408 0.02810292 0 0 Z " fill="#4B231C" transform="translate(11.65625,450.3359375)"/>
<path d="M0 0 C6.18267518 0.17997513 6.18267518 0.17997513 9.28125 2.50390625 C12.93580964 7.68119908 12.00481696 13.2858132 12.03125 19.44140625 C12.051875 20.63056641 12.0725 21.81972656 12.09375 23.04492188 C12.09890625 24.19283203 12.1040625 25.34074219 12.109375 26.5234375 C12.12339355 28.09895386 12.12339355 28.09895386 12.13769531 29.70629883 C11.72579184 33.08362514 10.80042158 34.91154133 8.78125 37.62890625 C5.03077518 40.12922279 3.22268734 40.16494179 -1.21875 39.62890625 C-4.46699476 37.07681933 -6.02890833 35.57657238 -6.84985352 31.47851562 C-6.84912842 30.32158203 -6.84840332 29.16464844 -6.84765625 27.97265625 C-6.84958984 26.70292969 -6.85152344 25.43320312 -6.85351562 24.125 C-6.82966797 22.80628906 -6.80582031 21.48757813 -6.78125 20.12890625 C-6.79220703 18.81019531 -6.80316406 17.49148438 -6.81445312 16.1328125 C-6.70608789 1.90084534 -6.70608789 1.90084534 0 0 Z " fill="#4B241D" transform="translate(42.21875,465.37109375)"/>
<path d="M0 0 C3.9375 0.5625 3.9375 0.5625 6.375 2.4375 C10.20285444 7.64338204 9.24118633 13.55634587 9.3125 19.8125 C9.34988281 21.04097656 9.38726562 22.26945312 9.42578125 23.53515625 C9.5248001 33.69008924 9.5248001 33.69008924 6.6640625 37.37890625 C2.9356413 40.36484815 2.9356413 40.36484815 -0.0625 40.25 C-1.0215625 40.25580078 -1.0215625 40.25580078 -2 40.26171875 C-5.27703413 39.15075453 -6.85957503 37.18518895 -9.0625 34.5625 C-9.70947266 31.41210938 -9.70947266 31.41210938 -9.7265625 27.90625 C-9.73300781 26.63652344 -9.73945312 25.36679687 -9.74609375 24.05859375 C-9.72675781 22.73988281 -9.70742188 21.42117188 -9.6875 20.0625 C-9.71650391 18.08443359 -9.71650391 18.08443359 -9.74609375 16.06640625 C-9.73964844 14.79667969 -9.73320313 13.52695312 -9.7265625 12.21875 C-9.72092285 11.06181641 -9.7152832 9.90488281 -9.70947266 8.71289062 C-8.68909311 3.74421979 -5.34144606 -0.18052601 0 0 Z " fill="#4B231C" transform="translate(45.0625,414.4375)"/>
<path d="M0 0 C2.45795938 1.49098831 4.40624922 2.85377647 6.5625 4.6875 C7.10068359 5.12255859 7.63886719 5.55761719 8.19335938 6.00585938 C9.27197756 6.88199328 10.34220103 7.76856831 11.40356445 8.66552734 C12.48313367 9.56794749 13.58155917 10.44820322 14.69604492 11.30712891 C18.74983346 14.47375325 18.74983346 14.47375325 19.98046875 17.0625 C20.40350578 21.02148802 20.30176154 22.53275632 18.0625 26 C15.06345281 27.95856143 13.00142188 28.9669954 9.37890625 28.75390625 C3.81653789 26.99111956 -0.59044595 22.68596664 -5 19 C-5.68191406 18.45859375 -6.36382812 17.9171875 -7.06640625 17.359375 C-10.59777154 14.53428277 -11.85788707 13.25533089 -12.375 8.6875 C-12 5 -12 5 -9.9375 2.0625 C-6.20463482 -0.55844789 -4.49913042 -0.50933552 0 0 Z " fill="#4D251D" transform="translate(169,451)"/>
<path d="M0 0 C2.70748221 1.73556552 3.70006691 2.97081784 4.59765625 6.05078125 C5.34280832 10.3553005 5.27467491 12.46046 3.25 16.4375 C1.01979784 18.97745246 -0.64469746 20.75475478 -4.05078125 21.37109375 C-8.31020603 21.49615458 -11.12290024 21.39700198 -14.5 18.625 C-17.94794433 15.00465845 -18.30700066 13.04789666 -18.20703125 8.03125 C-17.89170516 4.93748455 -17.06016368 3.32599125 -15 1 C-9.52624782 -2.3271827 -5.71001924 -2.48261706 0 0 Z " fill="#4B231C" transform="translate(43,36)"/>
<path d="M0 0 C2.93423195 1.79646854 4.47205355 2.9441071 6 6 C6.53118252 10.91996928 6.75105553 14.77327597 4.125 19.0625 C0.40046472 22.45839982 -2.62277778 22.38449302 -7.515625 22.36328125 C-11.2355088 21.81933598 -12.79539801 19.91576392 -15 17 C-15.33 16.67 -15.66 16.34 -16 16 C-16.55419529 11.09400888 -16.74119722 7.21062213 -14.125 2.9375 C-9.92660985 -0.89044396 -5.46648071 -0.64463216 0 0 Z " fill="#4C231C" transform="translate(506,187)"/>
<path d="M0 0 C10.49062236 4.87505392 20.20651535 10.87334778 30 17 C26.66883385 20.95374187 23.31571444 24.81041857 19.625 28.4375 C18.93664062 29.11683594 18.24828125 29.79617187 17.5390625 30.49609375 C17.03117187 30.99238281 16.52328125 31.48867187 16 32 C12.97256227 29.40675386 11.57372416 26.43710017 9.86328125 22.87109375 C9.57897751 22.28078873 9.29467377 21.6904837 9.00175476 21.08229065 C8.40463878 19.83894222 7.81060582 18.59410902 7.21948242 17.34790039 C6.31230403 15.43708723 5.39426152 13.53178907 4.47460938 11.62695312 C0 2.28290908 0 2.28290908 0 0 Z " fill="#694D58" transform="translate(85,124)"/>
<path d="M0 0 C0.66 0.33 1.32 0.66 2 1 C-2.95 10.9 -7.9 20.8 -13 31 C-17.01982722 28.99008639 -19.65433434 26.6444163 -22.75 23.5 C-23.25660156 23.00113281 -23.76320313 22.50226563 -24.28515625 21.98828125 C-28 18.25341139 -28 18.25341139 -28 16 C-26.88757935 15.37955811 -26.88757935 15.37955811 -25.75268555 14.74658203 C-22.99578642 13.20817918 -20.23950783 11.668672 -17.48364258 10.12841797 C-16.29183222 9.46261118 -15.0997771 8.79724231 -13.9074707 8.13232422 C-12.19157316 7.17531258 -10.47663386 6.21658348 -8.76171875 5.2578125 C-7.73006592 4.6817627 -6.69841309 4.10571289 -5.63549805 3.51220703 C-3.7156323 2.41061848 -1.84170566 1.22780377 0 0 Z " fill="#6A4E59" transform="translate(468,124)"/>
</svg>
